<svg xmlns="http://www.w3.org/2000/svg" width="20.188" height="19" viewBox="0 0 20.188 19">
  <g id="Group_57313" data-name="Group 57313" transform="translate(-554.906 -215)">
    <path id="Icon_awesome-chart-pie" data-name="Icon awesome-chart-pie" d="M19.586,10.688H10.78l5.864,5.864a.6.6,0,0,0,.823.025,8.888,8.888,0,0,0,2.714-5.227.6.6,0,0,0-.6-.662ZM19,8.283A8.927,8.927,0,0,0,10.717,0a.6.6,0,0,0-.623.6v8.3h8.3a.6.6,0,0,0,.6-.623Zm-10.686,2.4V1.882a.6.6,0,0,0-.662-.6A8.9,8.9,0,0,0,.005,10.4,9.016,9.016,0,0,0,9.019,19a8.837,8.837,0,0,0,5.019-1.634.59.59,0,0,0,.058-.894Z" transform="translate(554.906 215)" fill="#ba4773"/>
  </g>
</svg>
