<svg xmlns="http://www.w3.org/2000/svg" width="14.426" height="16.479" viewBox="0 0 14.426 16.479">
  <g id="Group_56726" data-name="Group 56726" transform="translate(-1138.152 737.4)">
    <path id="Path_2" data-name="Path 2" d="M130.6,105.309c0-3.145-1.659-4.265-3.025-4.809a.733.733,0,0,1-.408-.429,1.843,1.843,0,0,0-3.611,0,.718.718,0,0,1-.408.429c-1.366.544-3.025,1.664-3.025,4.809,0,3.433-.743,3.956-1.795,5.2a.939.939,0,0,0,.722,1.481h12.622a.941.941,0,0,0,.722-1.481C131.347,109.265,130.6,108.741,130.6,105.309Z" transform="translate(1020 -836)" fill="#ba4773"/>
    <path id="Path_3" data-name="Path 3" d="M211.888,374.1h-4.626v.005a.265.265,0,0,0-.262.256v.026c.147,1.2,1.214,1.774,2.559,1.774,1.329,0,2.391-.591,2.554-1.774A.259.259,0,0,0,211.888,374.1Z" transform="translate(935.802 -1097.083)" fill="#ba4773"/>
  </g>
</svg>
