<svg xmlns="http://www.w3.org/2000/svg" width="16.131" height="12.437" viewBox="0 0 16.131 12.437">
  <g id="Group_57317" data-name="Group 57317" transform="translate(-556.935 -218.781)">
    <path id="card-icon" d="M112.953,191.8H99.178A1.182,1.182,0,0,0,98,192.978V194.3h16.131v-1.318A1.182,1.182,0,0,0,112.953,191.8ZM98,203.059a1.182,1.182,0,0,0,1.178,1.178h13.774a1.182,1.182,0,0,0,1.178-1.178v-7.527H98Zm11.78-5.652a.626.626,0,0,1,.624-.624h2.486a.624.624,0,1,1,0,1.248H110.4a.628.628,0,0,1-.624-.624Z" transform="translate(458.935 26.981)" fill="#ba4773"/>
  </g>
</svg>
