<svg xmlns="http://www.w3.org/2000/svg" width="12.682" height="12.682" viewBox="0 0 12.682 12.682">
  <g id="key" transform="translate(-0.001 0)">
    <g id="Group_57337" data-name="Group 57337" transform="translate(0.001 0)">
      <path id="Path_9970" data-name="Path 9970" d="M11.488,1.195A4.085,4.085,0,0,0,4.713,5.343l-4.6,4.6A.371.371,0,0,0,0,10.208v2.1a.371.371,0,0,0,.372.372h2.1a.371.371,0,0,0,.263-.109l.525-.526a.372.372,0,0,0,.106-.306L3.3,11.177l.782-.074a.371.371,0,0,0,.335-.335l.074-.782.565.066a.366.366,0,0,0,.29-.091.373.373,0,0,0,.124-.278V8.991h.679a.371.371,0,0,0,.263-.109l.953-.94a4.024,4.024,0,0,0,4.12-.967A4.092,4.092,0,0,0,11.488,1.195ZM10.437,3.822a1.115,1.115,0,1,1,0-1.576A1.116,1.116,0,0,1,10.437,3.822Z" transform="translate(-0.001 0)" fill="#ba4773"/>
    </g>
  </g>
</svg>
