<svg xmlns="http://www.w3.org/2000/svg" width="14.42" height="15.439" viewBox="0 0 14.42 15.439">
  <g id="icons" transform="translate(-0.792)">
    <path id="settings" d="M14.564,9.263l-.772-.45a1.324,1.324,0,0,1,0-2.252l.772-.45a1.222,1.222,0,0,0,.45-1.737l-.643-1.094a1.222,1.222,0,0,0-1.737-.45l-.772.45a1.284,1.284,0,0,1-1.93-1.094v-.9A1.29,1.29,0,0,0,8.645,0H7.359A1.29,1.29,0,0,0,6.072,1.287v.836a1.284,1.284,0,0,1-1.93,1.094L3.37,2.83a1.247,1.247,0,0,0-1.737.45L.99,4.374a1.4,1.4,0,0,0,.45,1.8l.772.45a1.267,1.267,0,0,1,0,2.187l-.772.45A1.222,1.222,0,0,0,.99,11l.643,1.094a1.222,1.222,0,0,0,1.737.45l.772-.386a1.284,1.284,0,0,1,1.93,1.094v.9a1.29,1.29,0,0,0,1.287,1.287H8.645a1.29,1.29,0,0,0,1.287-1.287v-.836a1.284,1.284,0,0,1,1.93-1.094l.772.45a1.247,1.247,0,0,0,1.737-.45l.643-1.094A1.468,1.468,0,0,0,14.564,9.263ZM8,10.293a2.573,2.573,0,1,1,2.573-2.573A2.581,2.581,0,0,1,8,10.293Z" fill="#ba4773"/>
  </g>
</svg>
