<svg xmlns="http://www.w3.org/2000/svg" width="17.765" height="15.615" viewBox="0 0 17.765 15.615">
  <g id="Group_57314" data-name="Group 57314" transform="translate(-556.118 -216.692)">
    <g id="Group_56692" data-name="Group 56692" transform="translate(555.323 191.169)">
      <path id="Path_217" data-name="Path 217" d="M18.56,88.627v11.485a.364.364,0,0,0-.025.064,1.547,1.547,0,0,1-1.581,1.322q-7.276,0-14.551-.005a1.736,1.736,0,0,1-.717-.161,1.526,1.526,0,0,1-.891-1.5q0-5.507,0-11.013v-.144a.305.305,0,0,1,.078.137l1.759,5.272a1.577,1.577,0,0,0,1.626,1.17H7.075c0,.169,0,.318,0,.468a.525.525,0,0,0,.571.573q2.029,0,4.058,0a.525.525,0,0,0,.574-.57c0-.154,0-.307,0-.47h2.8a1.579,1.579,0,0,0,1.65-1.184q.882-2.644,1.765-5.288c.018-.053.046-.1.069-.154" transform="translate(0 -60.361)" fill="#ba4773"/>
      <path id="Path_219" data-name="Path 219" d="M32.2,33.852c0-.184,0-.345,0-.506a.516.516,0,0,0-.54-.534q-2.064,0-4.128,0a.515.515,0,0,0-.534.539c0,.161,0,.321,0,.493-.059,0-.1.007-.148.007q-1.353,0-2.706,0a.534.534,0,0,1-.585-.414Q22.6,30.572,21.646,27.7c-.009-.026-.015-.054-.025-.094h4.334c0-.169,0-.328,0-.487a1.551,1.551,0,0,1,1.179-1.543,1.8,1.8,0,0,1,.463-.054q2-.006,4.007,0a1.569,1.569,0,0,1,1.637,1.638c0,.139,0,.277,0,.433h4.344c-.026.081-.044.138-.063.195l-1.855,5.57a.579.579,0,0,1-.671.49H32.2ZM27,27.594h5.2c0-.133,0-.254,0-.374,0-.468-.184-.654-.646-.654h-1.8c-.734,0-1.467,0-2.2,0a.516.516,0,0,0-.551.484c-.011.177,0,.356,0,.544" transform="translate(-19.921)" fill="#ba4773"/>
      <rect id="Rectangle_3298" data-name="Rectangle 3298" width="3.095" height="1.026" transform="translate(8.131 33.855)" fill="#ba4773"/>
    </g>
  </g>
</svg>
