<svg id="wallet" xmlns="http://www.w3.org/2000/svg" width="13.047" height="19.086" viewBox="0 0 23 23">
  <path id="Path_10739" data-name="Path 10739" d="M64.216,3.492a2.249,2.249,0,0,1,2.246-2.246h.777L67,.595a.9.9,0,0,0-1.153-.54L58,2.913a.9.9,0,0,0-.536,1.153L57.876,5.2h6.34Z" transform="translate(-54.827 0)" fill="#ac4f72"/>
  <path id="Path_10740" data-name="Path 10740" d="M239.9,57.745a.9.9,0,0,0-.9.9V60.35h7.861V58.643a.9.9,0,0,0-.9-.9Z" transform="translate(-228.264 -55.151)" fill="#ac4f72"/>
  <path id="Path_10741" data-name="Path 10741" d="M20.978,157.357H17.834a3.369,3.369,0,0,1,0-6.738h3.144v-3.077a1.8,1.8,0,0,0-1.8-1.8H1.8a1.8,1.8,0,0,0-1.8,1.8V160.4a1.8,1.8,0,0,0,1.8,1.8H19.181a1.8,1.8,0,0,0,1.8-1.8Z" transform="translate(0 -139.198)" fill="#ac4f72"/>
  <path id="Path_10742" data-name="Path 10742" d="M358.513,284.245h-4.492a2.021,2.021,0,1,0,0,4.043h4.492a.675.675,0,0,0,.674-.674v-2.7A.675.675,0,0,0,358.513,284.245Zm-4.492,2.7a.674.674,0,1,1,.674-.674A.674.674,0,0,1,354.021,286.94Z" transform="translate(-336.187 -271.476)" fill="#ac4f72"/>
</svg>
