<svg xmlns="http://www.w3.org/2000/svg" width="29.456" height="29.458" viewBox="0 0 29.456 29.458">
  <g id="expenses" transform="translate(-3 -2.009)">
    <path id="Path_10031" data-name="Path 10031" d="M21.976,33.988c0-.864,0-3.5,2.5-3.5h4.994v-3a2.5,2.5,0,0,0-2.5-2.5H5.5A2.5,2.5,0,0,0,3,27.5V40.48a2.5,2.5,0,0,0,2.5,2.5H26.969a2.5,2.5,0,0,0,2.5-2.5v-3H24.473C21.976,37.484,21.976,34.853,21.976,33.988Z" transform="translate(0 -11.51)" fill="#ca3c74"/>
    <path id="Path_10032" data-name="Path 10032" d="M32.109,18.495V15.467a1.447,1.447,0,0,0-.72-1.251,1.512,1.512,0,0,0-1.509-.027l-8.634,4.305Z" transform="translate(-9.135 -6.004)" fill="#ca3c74"/>
    <circle id="Ellipse_573" data-name="Ellipse 573" cx="0.889" cy="0.889" r="0.889" transform="translate(25.287 21.622)" fill="#ca3c74"/>
    <path id="Path_10033" data-name="Path 10033" d="M22.815,10.7V8.572a1.553,1.553,0,0,0-.9-1.44,1.417,1.417,0,0,0-1.555.237l-8.7,7.62h2.55Z" transform="translate(-4.335 -2.498)" fill="#ca3c74"/>
    <path id="Path_10034" data-name="Path 10034" d="M50.49,38H44.5c-.9,0-1.5.425-1.5,2.5s.6,2.5,1.5,2.5H50.49a1.5,1.5,0,0,0,1.5-1.5v-2A1.5,1.5,0,0,0,50.49,38ZM46,42.494a2,2,0,1,1,2-2A2,2,0,0,1,46,42.494Z" transform="translate(-20.026 -18.019)" fill="#ca3c74"/>
    <path id="Path_10035" data-name="Path 10035" d="M55.381,5.4l-2.3-3.09a.745.745,0,0,0-1.2,0L49.606,5.384A.36.36,0,0,0,49.86,6h1.128a3.6,3.6,0,0,1-1.676,3.808L49,9.994l2,1.5.088-.058A6.533,6.533,0,0,0,53.994,6h1.139A.351.351,0,0,0,55.381,5.4Z" transform="translate(-23.029)" fill="#ca3c74"/>
  </g>
</svg>
