<svg xmlns="http://www.w3.org/2000/svg" width="29.916" height="29.916" viewBox="0 0 29.916 29.916">
  <g id="store" transform="translate(-2 -2)">
    <path id="XMLID_266_" d="M29.614,8l2.3,5.342a3.5,3.5,0,0,1-3.739,3.205,3.546,3.546,0,0,1-3.732-3c0-.019-.013-.019-.015,0a3.546,3.546,0,0,1-3.732,3,3.546,3.546,0,0,1-3.732-3c0-.019-.013-.019-.015,0a3.546,3.546,0,0,1-3.732,3,3.546,3.546,0,0,1-3.732-3c0-.019-.013-.019-.015,0a3.546,3.546,0,0,1-3.732,3A3.5,3.5,0,0,1,2,13.342L4.3,8Z" transform="translate(0 0.41)" fill="#ca3c74"/>
    <path id="XMLID_269_" d="M29.642,6.274H4V3.068A1.069,1.069,0,0,1,5.068,2H28.573a1.069,1.069,0,0,1,1.068,1.068Z" transform="translate(0.137 0)" fill="#ca3c74"/>
    <path id="XMLID_270_" d="M29.642,17.807V30.835H4V17.807a6.366,6.366,0,0,0,1.6.207,6.335,6.335,0,0,0,1.6-.223v8.236a.534.534,0,0,0,.534.534H25.9a.534.534,0,0,0,.534-.534V17.791a6.073,6.073,0,0,0,3.205.016Z" transform="translate(0.137 1.08)" fill="#ca3c74"/>
  </g>
</svg>
