<svg id="Layer_53" data-name="Layer 53" xmlns="http://www.w3.org/2000/svg" width="45.727" height="45.719" viewBox="0 0 45.727 45.719">
  <path id="Path_9789" data-name="Path 9789" d="M45.379,18.262a1.616,1.616,0,0,0-1.595,1.595V32.616L34.9,22.451a6.039,6.039,0,0,0-8.8,0l-6.1,6.975-2-2.424a5.869,5.869,0,0,0-9.016,0L4.444,32.467V11.351A6.932,6.932,0,0,1,11.355,4.44H28.367a1.595,1.595,0,1,0,0-3.19H11.355a10.1,10.1,0,0,0-10.1,10.1V36.869a.191.191,0,0,0,0,.106h0a10.1,10.1,0,0,0,10.1,9.994H36.873a10.1,10.1,0,0,0,10.08-9.952h0V19.857A1.616,1.616,0,0,0,45.379,18.262ZM36.873,43.78H11.355A6.911,6.911,0,0,1,4.486,37.4l6.869-8.357a2.743,2.743,0,0,1,4.083,0l3.211,3.87a1.574,1.574,0,0,0,1.212.574,1.829,1.829,0,0,0,1.212-.553l7.315-8.378a2.786,2.786,0,0,1,4.04,0L43.635,37.315A6.89,6.89,0,0,1,36.873,43.78Z" transform="translate(-1.246 -1.25)" fill="#e5bfce"/>
  <path id="Path_9790" data-name="Path 9790" d="M4.25,10.1A5.848,5.848,0,1,0,10.1,4.25,5.848,5.848,0,0,0,4.25,10.1Zm8.506,0A2.658,2.658,0,1,1,10.1,7.44,2.658,2.658,0,0,1,12.756,10.1Z" transform="translate(2.137 2.129)" fill="#e5bfce"/>
  <path id="Path_9791" data-name="Path 9791" d="M16.845,10.819h4.785V15.6a1.595,1.595,0,0,0,3.19,0V10.819H29.6a1.595,1.595,0,1,0,0-3.19H24.819V2.845a1.595,1.595,0,1,0-3.19,0V7.629H16.845a1.595,1.595,0,1,0,0,3.19Z" transform="translate(14.528 -1.25)" fill="#e5bfce"/>
</svg>
