<svg xmlns="http://www.w3.org/2000/svg" width="19.832" height="18.108" viewBox="0 0 19.832 18.108">
  <g id="add-photo" transform="translate(-1 -1)">
    <path id="Path_10075" data-name="Path 10075" d="M6.352,4.758A2.587,2.587,0,0,1,8.181,4h3.166a.862.862,0,0,1,0,1.725H8.181a.862.862,0,0,0-.61.253l-.714.714a2.587,2.587,0,0,1-1.829.758H3.587a.862.862,0,0,0-.862.862v8.623a.862.862,0,0,0,.862.862H15.658a.862.862,0,0,0,.862-.862V10.9a.862.862,0,0,1,1.725,0v6.036a2.587,2.587,0,0,1-2.587,2.587H3.587A2.587,2.587,0,0,1,1,16.934V8.311A2.587,2.587,0,0,1,3.587,5.725H5.028a.862.862,0,0,0,.61-.253Z" transform="translate(0 -0.413)" fill="#fff" fill-rule="evenodd"/>
    <path id="Path_10076" data-name="Path 10076" d="M6,13.311a4.311,4.311,0,1,1,4.311,4.311A4.311,4.311,0,0,1,6,13.311Zm4.311-2.587A2.587,2.587,0,1,0,12.9,13.311,2.587,2.587,0,0,0,10.311,10.725Z" transform="translate(-0.689 -1.102)" fill="#fff" fill-rule="evenodd"/>
    <path id="Path_10077" data-name="Path 10077" d="M16,4.862A.862.862,0,0,1,16.862,4h5.174a.862.862,0,1,1,0,1.725H16.862A.862.862,0,0,1,16,4.862Z" transform="translate(-2.066 -0.413)" fill="#fff" fill-rule="evenodd"/>
    <path id="Path_10078" data-name="Path 10078" d="M19.862,1a.862.862,0,0,1,.862.862V7.036a.862.862,0,0,1-1.725,0V1.862A.862.862,0,0,1,19.862,1Z" transform="translate(-2.479)" fill="#fff" fill-rule="evenodd"/>
  </g>
</svg>
