<svg xmlns="http://www.w3.org/2000/svg" width="19.801" height="19.801" viewBox="0 0 19.801 19.801">
  <g id="Icon_ionic-ios-add-circle-outline" data-name="Icon ionic-ios-add-circle-outline" transform="translate(-3.375 -3.375)">
    <path id="Path_9977" data-name="Path 9977" d="M19.889,14.819H16.343V11.273a.762.762,0,1,0-1.523,0v3.546H11.273a.729.729,0,0,0-.762.762.737.737,0,0,0,.762.762h3.546v3.546a.738.738,0,0,0,.762.762.758.758,0,0,0,.762-.762V16.343h3.546a.762.762,0,1,0,0-1.523Z" transform="translate(-2.305 -2.305)" fill="#ca3c74"/>
    <path id="Path_9978" data-name="Path 9978" d="M13.276,4.708A8.565,8.565,0,1,1,7.216,7.216a8.511,8.511,0,0,1,6.059-2.508m0-1.333a9.9,9.9,0,1,0,9.9,9.9,9.9,9.9,0,0,0-9.9-9.9Z" fill="#ca3c74"/>
  </g>
</svg>
