<svg xmlns="http://www.w3.org/2000/svg" width="34.001" height="32.05" viewBox="0 0 34.001 32.05">
  <g id="income" transform="translate(-3.548 -2.429)">
    <path id="Path_10028" data-name="Path 10028" d="M10.056,318.872a.941.941,0,0,0-1.286-.345L4.019,321.27a.942.942,0,0,0-.345,1.286l4.856,8.411a.942.942,0,0,0,1.286.345l4.751-2.744a.941.941,0,0,0,.345-1.286Z" transform="translate(0 -296.96)" fill="#ca3c74"/>
    <path id="Path_10029" data-name="Path 10029" d="M161.064,273.87a1.415,1.415,0,0,0-1.976-.321l-5.914,4.261a3.571,3.571,0,0,1-.426.312,3.665,3.665,0,0,1-1.959.561H145.95a1.01,1.01,0,1,1,0-2.02h5.174a1.339,1.339,0,0,0,1.337-1.395,1.36,1.36,0,0,0-1.37-1.283h-3.939a6.55,6.55,0,0,0-.872-.772,6.461,6.461,0,0,0-3.848-1.263,7.127,7.127,0,0,0-6.166,3.767l4.132,7.156h7.751a8.7,8.7,0,0,0,4.34-1.148,17.381,17.381,0,0,0,1.477-.96c2.224-1.6,6.77-4.916,6.773-4.918A1.416,1.416,0,0,0,161.064,273.87Z" transform="translate(-123.782 -253.637)" fill="#ca3c74"/>
    <g id="rupee" transform="translate(18.206 2.429)">
      <g id="Group_57716" data-name="Group 57716">
        <path id="Path_10030" data-name="Path 10030" d="M6.811,0a6.811,6.811,0,1,0,6.811,6.811A6.811,6.811,0,0,0,6.811,0ZM8.47,5.108h.469a.426.426,0,0,1,0,.851H8.47a2.131,2.131,0,0,1-2.085,1.7H5.71L8.388,10.34a.426.426,0,0,1,0,.6.421.421,0,0,1-.3.125.428.428,0,0,1-.3-.124L4.381,7.538a.426.426,0,0,1,.3-.727h1.7a1.275,1.275,0,0,0,1.2-.851h-2.9a.426.426,0,0,1,0-.851h2.9a1.275,1.275,0,0,0-1.2-.851h-1.7a.426.426,0,1,1,0-.851H8.939a.426.426,0,1,1,0,.851H8.076A2.1,2.1,0,0,1,8.47,5.108Z" fill="#ca3c74"/>
      </g>
    </g>
  </g>
</svg>
