<svg xmlns="http://www.w3.org/2000/svg" width="13" height="13" viewBox="0 0 13 13">
  <path id="calendar" d="M11.375,1.625h-.542V.542A.542.542,0,0,0,10.291,0H9.75a.542.542,0,0,0-.542.542V1.625H3.792V.542A.542.542,0,0,0,3.25,0H2.708a.542.542,0,0,0-.542.542V1.625H1.625A1.627,1.627,0,0,0,0,3.25v8.125A1.627,1.627,0,0,0,1.625,13h9.75A1.627,1.627,0,0,0,13,11.375V3.25A1.627,1.627,0,0,0,11.375,1.625Zm.542,9.75a.543.543,0,0,1-.542.542H1.625a.543.543,0,0,1-.542-.542V5.438H11.916Zm0,0" fill="#ca3c74"/>
</svg>
