<svg xmlns="http://www.w3.org/2000/svg" width="10.794" height="9.964" viewBox="0 0 10.794 9.964">
  <g id="Icon_ionic-ios-calendar" data-name="Icon ionic-ios-calendar" transform="translate(-3.375 -4.5)">
    <path id="Path_10070" data-name="Path 10070" d="M13.131,6.75H12.093v.623a.208.208,0,0,1-.208.208h-.415a.208.208,0,0,1-.208-.208V6.75H6.281v.623a.208.208,0,0,1-.208.208H5.658a.208.208,0,0,1-.208-.208V6.75H4.413A1.041,1.041,0,0,0,3.375,7.788v7.058a1.041,1.041,0,0,0,1.038,1.038h8.718a1.041,1.041,0,0,0,1.038-1.038V7.788A1.041,1.041,0,0,0,13.131,6.75Zm.208,7.784a.52.52,0,0,1-.519.519h-8.1a.52.52,0,0,1-.519-.519V9.864a.208.208,0,0,1,.208-.208h8.718a.208.208,0,0,1,.208.208Z" transform="translate(0 -1.42)" fill="#fff"/>
    <path id="Path_10071" data-name="Path 10071" d="M9.83,4.708A.208.208,0,0,0,9.623,4.5H9.208A.208.208,0,0,0,9,4.708V5.33h.83Z" transform="translate(-3.549)" fill="#fff"/>
    <path id="Path_10072" data-name="Path 10072" d="M25.58,4.708a.208.208,0,0,0-.208-.208h-.415a.208.208,0,0,0-.208.208V5.33h.83Z" transform="translate(-13.487)" fill="#fff"/>
  </g>
</svg>
