<svg xmlns="http://www.w3.org/2000/svg" width="17.796" height="12.235" viewBox="0 0 17.796 12.235">
  <g id="credit-card" transform="translate(0 -80)">
    <path id="Path_9979" data-name="Path 9979" d="M17.8,82.885v-.938A1.946,1.946,0,0,0,15.85,80H1.946A1.946,1.946,0,0,0,0,81.946v.938a.174.174,0,0,0,.174.174H17.622A.174.174,0,0,0,17.8,82.885Z" fill="#ca3c74"/>
    <path id="Path_9980" data-name="Path 9980" d="M0,200.174v5.944a1.946,1.946,0,0,0,1.946,1.946h13.9a1.946,1.946,0,0,0,1.946-1.946v-5.944a.174.174,0,0,0-.174-.174H.174A.174.174,0,0,0,0,200.174Zm4.449,4.553a.556.556,0,0,1-.556.556H3.337a.556.556,0,0,1-.556-.556v-.556a.556.556,0,0,1,.556-.556h.556a.556.556,0,0,1,.556.556Z" transform="translate(0 -115.829)" fill="#ca3c74"/>
  </g>
</svg>
