<svg xmlns="http://www.w3.org/2000/svg" width="16.26" height="16.26" viewBox="0 0 16.26 16.26">
  <path id="copy" d="M14.355,16.26H5.716a1.908,1.908,0,0,1-1.905-1.905V5.716A1.908,1.908,0,0,1,5.716,3.811h8.638A1.908,1.908,0,0,1,16.26,5.716v8.638A1.908,1.908,0,0,1,14.355,16.26ZM5.716,5.081a.636.636,0,0,0-.635.635v8.638a.636.636,0,0,0,.635.635h8.638a.636.636,0,0,0,.635-.635V5.716a.636.636,0,0,0-.635-.635Zm-3.176,6.1H1.905a.636.636,0,0,1-.635-.635V1.905a.636.636,0,0,1,.635-.635h8.638a.636.636,0,0,1,.635.635v.6h1.27v-.6A1.908,1.908,0,0,0,10.544,0H1.905A1.908,1.908,0,0,0,0,1.905v8.638a1.908,1.908,0,0,0,1.905,1.905h.635Zm0,0" fill="#ca3c74"/>
</svg>
