<svg xmlns="http://www.w3.org/2000/svg" width="24" height="24" viewBox="0 0 24 24">
  <g id="Group_57874" data-name="Group 57874" transform="translate(-1542.057 -348.563)">
    <circle id="Ellipse_575" data-name="Ellipse 575" cx="12" cy="12" r="12" transform="translate(1542.057 348.563)" fill="#fbe6ef"/>
    <g id="csv-file-format-extension" transform="translate(1518.1 355.371)">
      <path id="Path_10058" data-name="Path 10058" d="M39.973,3.714h-.249v-1.2a.179.179,0,0,0,0-.023.2.2,0,0,0-.048-.132l-2-2.287h0a.2.2,0,0,0-.041-.034L37.616.026a.213.213,0,0,0-.04-.017l-.011,0A.2.2,0,0,0,37.518,0H32.6a.408.408,0,0,0-.407.407V3.714h-.249a.582.582,0,0,0-.582.582V7.322a.582.582,0,0,0,.582.582h.249V9.975a.408.408,0,0,0,.407.407h6.718a.408.408,0,0,0,.407-.407V7.9h.249a.582.582,0,0,0,.582-.582V4.3A.582.582,0,0,0,39.973,3.714ZM32.6.407h4.716V2.49a.2.2,0,0,0,.2.2h1.8v1.02H32.6ZM35.663,5.93c-.505-.176-.834-.455-.834-.9,0-.519.433-.916,1.15-.916a1.859,1.859,0,0,1,.776.154l-.153.555a1.442,1.442,0,0,0-.636-.145c-.3,0-.442.135-.442.293,0,.194.171.28.564.429.537.2.789.478.789.907,0,.51-.392.943-1.227.943a1.992,1.992,0,0,1-.862-.185l.14-.568a1.752,1.752,0,0,0,.762.189c.316,0,.483-.131.483-.329S36.029,6.061,35.663,5.93Zm-3.582-.2a1.55,1.55,0,0,1,1.66-1.615,1.792,1.792,0,0,1,.749.135l-.14.546a1.49,1.49,0,0,0-.577-.112.914.914,0,0,0-.97,1.005.908.908,0,0,0,.974.992,1.716,1.716,0,0,0,.573-.1l.1.537a1.957,1.957,0,0,1-.78.131A1.446,1.446,0,0,1,32.082,5.732Zm7.235,4.133H32.6V7.9h6.718Zm-.455-2.658h-.8l-.974-3.04h.753l.37,1.286c.1.361.2.708.271,1.087h.013c.077-.365.171-.726.275-1.074l.388-1.3h.731Z" transform="translate(0)" fill="#ca3c74"/>
    </g>
  </g>
</svg>
