<svg id="_5402370_bin_delete_remove_trash_can_icon" data-name="5402370_bin_delete_remove_trash_can_icon" xmlns="http://www.w3.org/2000/svg" width="11.856" height="11.856" viewBox="0 0 11.856 11.856">
  <path id="Path_294" data-name="Path 294" d="M14.856,4.976a.659.659,0,0,1-.659.659H3.659a.659.659,0,0,1,0-1.317H6.952V3.988A.988.988,0,0,1,7.94,3H9.916a.988.988,0,0,1,.988.988v.329H14.2A.659.659,0,0,1,14.856,4.976Z" transform="translate(-3 -3)" fill="#ca3c74"/>
  <path id="Path_295" data-name="Path 295" d="M5.5,9v6.258A1.647,1.647,0,0,0,7.147,16.9h5.27a1.647,1.647,0,0,0,1.647-1.647V9Zm3.623,5.27a.659.659,0,0,1-1.317,0V11.635a.659.659,0,0,1,1.317,0Zm2.635,0a.659.659,0,1,1-1.317,0V11.635a.659.659,0,0,1,1.317,0Z" transform="translate(-3.853 -5.048)" fill="#ca3c74"/>
</svg>
