<svg xmlns="http://www.w3.org/2000/svg" width="11.31" height="9.425" viewBox="0 0 11.31 9.425">
  <g id="direct-download" transform="translate(0 -2)">
    <path id="Path_9865" data-name="Path 9865" d="M8.827,8.6a.353.353,0,0,1-.255-.109L6.1,5.9a.354.354,0,0,1,.255-.6h1.3V2.589A.59.59,0,0,1,8.238,2H9.416a.59.59,0,0,1,.589.589V5.3h1.3a.354.354,0,0,1,.255.6L9.082,8.488A.353.353,0,0,1,8.827,8.6Z" transform="translate(-3.172)" fill="#ca3c74"/>
    <path id="Path_9866" data-name="Path 9866" d="M10.485,19.885H.825A.826.826,0,0,1,0,19.06v-.236A.826.826,0,0,1,.825,18h9.66a.826.826,0,0,1,.825.825v.236A.826.826,0,0,1,10.485,19.885Z" transform="translate(0 -8.46)" fill="#ca3c74"/>
  </g>
</svg>
