<svg xmlns="http://www.w3.org/2000/svg" width="8.62" height="8.62" viewBox="0 0 8.62 8.62">
  <g id="edit" transform="translate(-3.596 -0.501)">
    <path id="Path_9769" data-name="Path 9769" d="M182.284,72.669a.282.282,0,0,0-.076.142l-.394,1.97a.278.278,0,0,0,.274.333.266.266,0,0,0,.055-.005l1.969-.394a.277.277,0,0,0,.143-.076l4.407-4.407-1.969-1.969Zm0,0" transform="translate(-178.212 -65.992)" fill="#ca3c74"/>
    <path id="Path_9770" data-name="Path 9770" d="M394.185.908a1.393,1.393,0,0,0-1.969,0l-.771.771,1.969,1.969.771-.771a1.392,1.392,0,0,0,0-1.969Zm0,0" transform="translate(-382.376)" fill="#ca3c74"/>
  </g>
</svg>
