<svg id="edit" xmlns="http://www.w3.org/2000/svg" width="14.245" height="14.245" viewBox="0 0 14.245 14.245">
  <path id="Path_9768" data-name="Path 9768" d="M11.277,90.565a.593.593,0,0,0-.594.594v4.748a.594.594,0,0,1-.594.594H1.781a.594.594,0,0,1-.594-.594V87.6A.594.594,0,0,1,1.781,87H6.529a.594.594,0,0,0,0-1.187H1.781A1.783,1.783,0,0,0,0,87.6v8.31a1.783,1.783,0,0,0,1.781,1.781h8.31a1.783,1.783,0,0,0,1.781-1.781V91.158a.593.593,0,0,0-.594-.594Zm0,0" transform="translate(0 -83.442)" fill="#ca3c74"/>
  <path id="Path_9769" data-name="Path 9769" d="M182.315,72.958a.3.3,0,0,0-.081.151l-.42,2.1a.3.3,0,0,0,.291.355.283.283,0,0,0,.058-.006l2.1-.42a.3.3,0,0,0,.152-.081l4.7-4.7-2.1-2.1Zm0,0" transform="translate(-176.75 -66.377)" fill="#ca3c74"/>
  <path id="Path_9770" data-name="Path 9770" d="M394.365.935a1.485,1.485,0,0,0-2.1,0l-.821.821,2.1,2.1.822-.822a1.484,1.484,0,0,0,0-2.1Zm0,0" transform="translate(-380.554 -0.501)" fill="#ca3c74"/>
</svg>
