<svg xmlns="http://www.w3.org/2000/svg" width="15" height="15" viewBox="0 0 15 15">
  <g id="Group_57324" data-name="Group 57324" transform="translate(-1741.021 -146)">
    <g id="share" transform="translate(1739.021 144)">
      <path id="Path_9856" data-name="Path 9856" d="M18.25,2h-4.5a.75.75,0,0,0,0,1.5h2.69L10.22,9.72A.75.75,0,1,0,11.28,10.78l6.22-6.22V7.25a.75.75,0,1,0,1.5,0V2.75A.75.75,0,0,0,18.25,2Z" transform="translate(-2)" fill="#f877ab"/>
      <path id="Path_9857" data-name="Path 9857" d="M14.75,8.941a.75.75,0,0,0-.75.75v5.372a.938.938,0,0,1-.937.937H4.437a.937.937,0,0,1-.937-.937V6.437A.938.938,0,0,1,4.437,5.5H9.1A.75.75,0,1,0,9.1,4H4.437A2.44,2.44,0,0,0,2,6.437v8.625A2.44,2.44,0,0,0,4.437,17.5h8.625A2.44,2.44,0,0,0,15.5,15.063V9.691A.75.75,0,0,0,14.75,8.941Z" transform="translate(0 -0.5)" fill="#f877ab"/>
    </g>
  </g>
</svg>
