<svg xmlns="http://www.w3.org/2000/svg" width="11.994" height="7.15" viewBox="0 0 11.994 7.15">
  <g id="eye" transform="translate(0 -98.725)">
    <path id="Path_9772" data-name="Path 9772" d="M6,98.725a7.482,7.482,0,0,0-5.9,3.29.475.475,0,0,0,0,.567A7.478,7.478,0,0,0,6,105.875a7.482,7.482,0,0,0,5.9-3.29.475.475,0,0,0,0-.567A7.478,7.478,0,0,0,6,98.725Zm.164,6.092a2.523,2.523,0,1,1,2.353-2.353A2.524,2.524,0,0,1,6.161,104.817Zm-.076-1.163a1.358,1.358,0,1,1,1.268-1.268A1.356,1.356,0,0,1,6.085,103.654Z" transform="translate(0 0)" fill="#ca3c74"/>
  </g>
</svg>
