<svg id="Group_57311" data-name="Group 57311" xmlns="http://www.w3.org/2000/svg" xmlns:xlink="http://www.w3.org/1999/xlink" width="193.05" height="161.799" viewBox="0 0 193.05 161.799">
  <defs>
    <clipPath id="clip-path">
      <rect id="Rectangle_3512" data-name="Rectangle 3512" width="193.05" height="161.799" fill="none"/>
    </clipPath>
    <clipPath id="clip-path-2">
      <rect id="Rectangle_3488" data-name="Rectangle 3488" width="176.952" height="17.412" fill="none"/>
    </clipPath>
    <clipPath id="clip-path-3">
      <rect id="Rectangle_3489" data-name="Rectangle 3489" width="45.955" height="51.283" fill="none"/>
    </clipPath>
    <clipPath id="clip-path-4">
      <rect id="Rectangle_3490" data-name="Rectangle 3490" width="37.133" height="25.107" fill="none"/>
    </clipPath>
    <clipPath id="clip-path-5">
      <rect id="Rectangle_3491" data-name="Rectangle 3491" width="30.247" height="31.575" fill="none"/>
    </clipPath>
    <clipPath id="clip-path-6">
      <rect id="Rectangle_3492" data-name="Rectangle 3492" width="45.069" height="28.962" fill="none"/>
    </clipPath>
    <clipPath id="clip-path-7">
      <rect id="Rectangle_3493" data-name="Rectangle 3493" width="87.629" height="69.057" fill="none"/>
    </clipPath>
    <clipPath id="clip-path-8">
      <rect id="Rectangle_3494" data-name="Rectangle 3494" width="54.96" height="14.679" fill="none"/>
    </clipPath>
    <clipPath id="clip-path-9">
      <rect id="Rectangle_3495" data-name="Rectangle 3495" width="33.634" height="52.571" fill="none"/>
    </clipPath>
    <clipPath id="clip-path-10">
      <rect id="Rectangle_3496" data-name="Rectangle 3496" width="13.183" height="52.568" fill="none"/>
    </clipPath>
    <clipPath id="clip-path-11">
      <rect id="Rectangle_3497" data-name="Rectangle 3497" width="19.032" height="35.35" fill="none"/>
    </clipPath>
    <clipPath id="clip-path-15">
      <rect id="Rectangle_3501" data-name="Rectangle 3501" width="94.633" height="47.032" fill="none"/>
    </clipPath>
    <clipPath id="clip-path-16">
      <rect id="Rectangle_3502" data-name="Rectangle 3502" width="17.042" height="4.393" fill="none"/>
    </clipPath>
    <clipPath id="clip-path-17">
      <rect id="Rectangle_3503" data-name="Rectangle 3503" width="94.633" height="34.702" fill="none"/>
    </clipPath>
    <clipPath id="clip-path-18">
      <rect id="Rectangle_3504" data-name="Rectangle 3504" width="3.909" height="13.407" fill="none"/>
    </clipPath>
    <clipPath id="clip-path-19">
      <rect id="Rectangle_3505" data-name="Rectangle 3505" width="42.974" height="24.735" fill="none"/>
    </clipPath>
    <clipPath id="clip-path-20">
      <rect id="Rectangle_3506" data-name="Rectangle 3506" width="73.225" height="50.304" fill="none"/>
    </clipPath>
    <clipPath id="clip-path-21">
      <rect id="Rectangle_3507" data-name="Rectangle 3507" width="75.77" height="54.149" fill="none"/>
    </clipPath>
    <clipPath id="clip-path-22">
      <rect id="Rectangle_3508" data-name="Rectangle 3508" width="118.529" height="3.726" fill="none"/>
    </clipPath>
    <clipPath id="clip-path-23">
      <rect id="Rectangle_3509" data-name="Rectangle 3509" width="36.232" height="21.368" fill="none"/>
    </clipPath>
    <clipPath id="clip-path-24">
      <rect id="Rectangle_3510" data-name="Rectangle 3510" width="35.391" height="19.604" fill="none"/>
    </clipPath>
  </defs>
  <g id="Group_57310" data-name="Group 57310" clip-path="url(#clip-path)">
    <g id="Group_57309" data-name="Group 57309" transform="translate(0 0)">
      <g id="Group_57312" data-name="Group 57312">
        <g id="Group_57241" data-name="Group 57241" transform="translate(3.567 144.386)" opacity="0.2">
          <g id="Group_57240" data-name="Group 57240">
            <g id="Group_57239" data-name="Group 57239" clip-path="url(#clip-path-2)">
              <path id="Path_9882" data-name="Path 9882" d="M233.629,2300.474c.113,4.659-39.407,9.4-88.271,10.581s-88.567-1.631-88.68-6.29,39.407-9.4,88.271-10.581,88.567,1.631,88.68,6.29" transform="translate(-56.677 -2293.914)" fill="#650000"/>
            </g>
          </g>
        </g>
        <path id="Path_9883" data-name="Path 9883" d="M2311.432,1591.484c4.819,3.843,12.591,7.48,20.338.282,8.042-7.472,10.048-17.483,10.449-23.708a30.164,30.164,0,0,1,.588-4.307,28.83,28.83,0,0,1,3.908-9.6c2.237-3.5,5.078-7.264,8-9.366,0,0-15.566-4.077-30.388,10.277-5.69,5.508-11.269,13.734-15.814,25.948a9.265,9.265,0,0,0,2.918,10.474" transform="translate(-2162.664 -1447.05)" fill="#e23b7c"/>
        <path id="Path_9884" data-name="Path 9884" d="M2561.712,1558.737a8.536,8.536,0,0,1,.773-.714.508.508,0,0,1,.794.583,12.37,12.37,0,0,0-.938,4.53.508.508,0,0,0,.921.3,11.658,11.658,0,0,1,2.091-2.217.508.508,0,0,1,.779.608,13.622,13.622,0,0,0-1.255,8.347.507.507,0,0,0,.958.115,24.711,24.711,0,0,1,4.485-6.518.508.508,0,0,1,.865.441,16.8,16.8,0,0,0-.226,3.651.508.508,0,0,0,.957.206,33.06,33.06,0,0,1,2.371-3.692.507.507,0,0,1,.918.317,23.364,23.364,0,0,0,.175,3.709.507.507,0,0,0,.947.185,28.5,28.5,0,0,1,3.388-4.738.493.493,0,0,0,.11-.22,28.81,28.81,0,0,1,3.881-9.475,39.1,39.1,0,0,1,7.135-8.694.507.507,0,0,0-.246-.89c-3.8-.61-16.729-1.574-29.163,10.386a.525.525,0,0,0-.148.262,21.4,21.4,0,0,0-.44,3.138.507.507,0,0,0,.871.384" transform="translate(-2399.652 -1447.05)" fill="#fff"/>
        <g id="Group_57244" data-name="Group 57244" transform="translate(146.097 97.555)" opacity="0.3">
          <g id="Group_57243" data-name="Group 57243">
            <g id="Group_57242" data-name="Group 57242" clip-path="url(#clip-path-3)">
              <path id="Path_9885" data-name="Path 9885" d="M2336.59,1592.825c9.072-6.181,12.557-15.777,13.888-21.872a30.168,30.168,0,0,1,1.229-4.17,28.827,28.827,0,0,1,5.3-8.9c2.692-3.073,6-6.308,9.157-7.974.57.1.878.179.878.179-2.922,2.1-5.763,5.866-8,9.366a28.82,28.82,0,0,0-3.908,9.6,30.126,30.126,0,0,0-.589,4.307c-.4,6.226-2.407,16.236-10.449,23.708-7.746,7.2-15.518,3.561-20.338-.282a9.274,9.274,0,0,1-2.671-3.427c4.081,2.559,9.4,3.624,15.5-.531" transform="translate(-2321.092 -1549.905)" fill="#650000"/>
            </g>
          </g>
        </g>
        <path id="Path_9886" data-name="Path 9886" d="M2307.341,1581.888c-3.71,0-7.58-1.535-11.429-4.6a10.244,10.244,0,0,1-3.23-11.6c3.784-10.168,8.608-18.434,14.339-24.569a40.816,40.816,0,0,1,15.493-10.642c9.687-3.621,17.241-1.715,17.557-1.631a1,1,0,0,1,.33,1.776c-2.335,1.679-5.013,4.824-7.743,9.092a28.35,28.35,0,0,0-4.342,13.435c-.45,6.975-2.682,16.866-10.766,24.376a14.851,14.851,0,0,1-10.209,4.37m-12.789-15.511a8.251,8.251,0,0,0,2.6,9.347c4.76,3.8,11.928,6.934,19.035.332,7.6-7.063,9.706-16.429,10.133-23.042a30.36,30.36,0,0,1,4.652-14.382,42.413,42.413,0,0,1,6.512-8.2,31.553,31.553,0,0,0-14.39,1.948c-12.1,4.573-21.97,16.328-28.545,33.993" transform="translate(-2147.766 -1432.069)" fill="#650000"/>
        <path id="Path_9887" data-name="Path 9887" d="M1160.1,1446.182a1.572,1.572,0,0,0-2.254-.171c-2.744,2.437-9.561,8.182-13.934,10.169-5.481,2.491-15.684,6.727-13.261,14.949s17.123,9.219,21.483,1.37c2.714-4.884,9-9.431,13.357-12.168a4.347,4.347,0,0,0,.853-6.648Z" transform="translate(-1059.141 -1354.623)" fill="#e23b7c"/>
        <g id="Group_57247" data-name="Group 57247" transform="translate(71.244 98.143)" opacity="0.3">
          <g id="Group_57246" data-name="Group 57246">
            <g id="Group_57245" data-name="Group 57245" clip-path="url(#clip-path-4)">
              <path id="Path_9888" data-name="Path 9888" d="M1167.829,1560.158l-.764-.917a4.31,4.31,0,0,1-2.012,3.4c-4.359,2.737-10.643,7.284-13.357,12.168-3.757,6.763-15.185,6.953-19.826,1.617a9.225,9.225,0,0,0,.266,1.178c2.423,8.222,17.123,9.219,21.483,1.37,2.714-4.884,9-9.431,13.357-12.168a4.347,4.347,0,0,0,.853-6.648" transform="translate(-1131.87 -1559.241)" fill="#650000"/>
            </g>
          </g>
        </g>
        <g id="Group_57250" data-name="Group 57250" transform="translate(71.144 90.991)" opacity="0.7">
          <g id="Group_57249" data-name="Group 57249">
            <g id="Group_57248" data-name="Group 57248" clip-path="url(#clip-path-5)">
              <path id="Path_9889" data-name="Path 9889" d="M1132.894,1472.091c-2.423-8.222,7.78-12.458,13.261-14.949,4.373-1.988,11.19-7.732,13.934-10.169a1.564,1.564,0,0,1,.444-.27l-.433-.521a1.572,1.572,0,0,0-2.254-.171c-2.744,2.437-9.561,8.182-13.934,10.169-5.481,2.491-15.684,6.727-13.261,14.949.892,3.028,3.452,5.073,6.545,6.06a8.675,8.675,0,0,1-4.3-5.1" transform="translate(-1130.286 -1445.614)" fill="#fff"/>
            </g>
          </g>
        </g>
        <path id="Path_9890" data-name="Path 9890" d="M1316.471,1838.861a6,6,0,0,1-.373-1.071,7.81,7.81,0,0,1-.195-1.082,8.667,8.667,0,0,1,.034-2.216,7.321,7.321,0,0,1,.682-2.146,4.774,4.774,0,0,1,1.441-1.682.153.153,0,0,1,.235.172l0,.012a9.357,9.357,0,0,0-.429,1.9,12.271,12.271,0,0,0-.01,1.842c.055.612.129,1.221.227,1.832.022.153.044.306.075.458s.045.307.075.459c.042.3.109.629.135.892l.011.114a1,1,0,0,1-1.9.521" transform="translate(-1233.025 -1715.41)" fill="#650000"/>
        <path id="Path_9891" data-name="Path 9891" d="M1175.543,1810.774a6.019,6.019,0,0,1-.135-1.126,7.872,7.872,0,0,1,.042-1.1,8.666,8.666,0,0,1,.509-2.157,7.314,7.314,0,0,1,1.125-1.95,4.775,4.775,0,0,1,1.768-1.334.153.153,0,0,1,.193.218l-.006.01a9.367,9.367,0,0,0-.826,1.76,12.247,12.247,0,0,0-.4,1.8c-.077.61-.135,1.221-.171,1.838-.011.154-.022.308-.025.463s-.022.309-.025.464c-.023.3-.028.637-.06.9l-.014.114a1,1,0,0,1-1.971.1" transform="translate(-1101.42 -1689.603)" fill="#650000"/>
        <path id="Path_9892" data-name="Path 9892" d="M1126.846,1464.007a16.832,16.832,0,0,1-1.858-.1c-5.11-.565-9.012-3.386-10.183-7.362-2.575-8.738,7.656-13.361,13.152-15.844l.654-.3c3.652-1.66,9.654-6.428,13.684-10.007a2.571,2.571,0,0,1,3.684.278l6.227,7.481a5.346,5.346,0,0,1-1.072,8.153c-4.523,2.84-10.451,7.193-13.015,11.807-2.048,3.687-6.353,5.892-11.272,5.892M1144,1431.743a.569.569,0,0,0-.38.145c-1.5,1.329-9.214,8.073-14.184,10.332l-.658.3c-7.156,3.233-13.982,6.936-12.059,13.46,1.124,3.812,5.121,5.569,8.488,5.942,3.992.441,8.992-.863,11.165-4.774,2.77-4.985,8.978-9.565,13.7-12.529a3.349,3.349,0,0,0,.655-5.121l-.038-.043-6.244-7.5a.571.571,0,0,0-.4-.206l-.044,0" transform="translate(-1044.254 -1339.754)" fill="#650000"/>
        <path id="Path_9893" data-name="Path 9893" d="M1282.718,1820.741c-1.388,29.31-24.545,28.9-35.03,27.183a11.95,11.95,0,0,1-9.885-9.482c-.064-.333-.115-.667-.154-1-.785-6.553,2.9-12.763,7.767-12.638a8.555,8.555,0,0,1,7.245,4.1,27.768,27.768,0,0,1,4.047-4.435c10.824-9.373,20.056,1.653,20.056,1.653l2.583-6.524,3.153-7.963a68.919,68.919,0,0,1,.218,9.1" transform="translate(-1159.648 -1697.614)" fill="#e23b7c"/>
        <path id="Path_9894" data-name="Path 9894" d="M1463.619,2070.4c.082.145.133.241.187.359s.1.224.151.335c.1.222.173.449.255.674a11.08,11.08,0,0,1,.369,1.368,15,15,0,0,1,.31,2.774,15.467,15.467,0,0,1-.177,2.744,16.649,16.649,0,0,1-.616,2.638.155.155,0,0,1-.3-.052v-.011c.02-.443.067-.878.074-1.316s.02-.872-.013-1.306l-.034-.647-.07-.642c-.019-.214-.053-.426-.087-.637s-.058-.423-.107-.631a16.424,16.424,0,0,0-.682-2.435c-.137-.394-.3-.774-.461-1.153-.084-.185-.171-.372-.258-.551-.043-.091-.087-.18-.132-.265l-.122-.229-.03-.055a1,1,0,0,1,1.747-.962" transform="translate(-1369.746 -1939.606)" fill="#650000"/>
        <path id="Path_9895" data-name="Path 9895" d="M1321.516,2195.086c-.039,2.141-1.286,3.854-2.785,3.827s-2.682-1.785-2.642-3.926,1.286-3.854,2.785-3.827,2.682,1.785,2.642,3.926" transform="translate(-1233.249 -2053.241)" fill="#fff"/>
        <path id="Path_9896" data-name="Path 9896" d="M1294.314,2107.779c-.022,1.193-.717,2.149-1.553,2.134s-1.5-1-1.473-2.189.717-2.149,1.553-2.134,1.5,1,1.473,2.189" transform="translate(-1210.01 -1973.057)" fill="#fff"/>
        <path id="Path_9897" data-name="Path 9897" d="M1410.359,2130.3c-.022,1.194-.717,2.149-1.553,2.134s-1.5-1-1.473-2.189.717-2.149,1.553-2.134,1.5,1,1.473,2.189" transform="translate(-1318.75 -1994.157)" fill="#fff"/>
        <path id="Path_9898" data-name="Path 9898" d="M1354.953,2083.434c-.022,1.194-.717,2.149-1.553,2.134s-1.5-1-1.473-2.189.717-2.149,1.552-2.134,1.5,1,1.473,2.189" transform="translate(-1266.832 -1950.245)" fill="#fff"/>
        <g id="Group_57253" data-name="Group 57253" transform="translate(78.001 121.993)" opacity="0.3">
          <g id="Group_57252" data-name="Group 57252">
            <g id="Group_57251" data-name="Group 57251" clip-path="url(#clip-path-6)">
              <path id="Path_9899" data-name="Path 9899" d="M1284.292,1939.286c-1.387,29.31-24.545,28.9-35.03,27.183a11.95,11.95,0,0,1-9.885-9.482c-.064-.333-.115-.667-.154-1,.862,1.234,8.607,11.391,16.214,2.259,0,0,11.879,7.827,2.845-15.227,10.824-9.373,20.056,1.653,20.056,1.653l2.583-6.524c1.285.413,2.432.8,3.371,1.134" transform="translate(-1239.223 -1938.152)" fill="#650000"/>
            </g>
          </g>
        </g>
        <path id="Path_9900" data-name="Path 9900" d="M1261.818,1811.324a24.407,24.407,0,0,0-5.916-3.631,12.992,12.992,0,0,0-3.232-.892,10.965,10.965,0,0,0-3.288.064,12.608,12.608,0,0,0-3.131,1.01l-.736.393c-.121.068-.247.126-.365.2l-.352.229c-.233.155-.473.3-.7.461l-.676.509c-.112.086-.227.167-.337.256l-.321.281-.642.56c-.417.388-.82.8-1.229,1.2-.383.43-.773.853-1.151,1.289-.359.454-.732.9-1.1,1.347l-.021.026a1,1,0,0,1-1.413.144,1.021,1.021,0,0,1-.249-.3h0c-.027-.05-.1-.164-.156-.251s-.129-.187-.2-.279c-.139-.185-.291-.363-.446-.539a8.544,8.544,0,0,0-1.039-.95,7.53,7.53,0,0,0-2.5-1.242,5.287,5.287,0,0,0-.686-.161,6.307,6.307,0,0,0-.7-.1c-.235-.014-.479-.039-.708-.047l-.327.006-.325.032a5.112,5.112,0,0,0-2.426,1.031,9.484,9.484,0,0,0-3.1,4.731,13.649,13.649,0,0,0-.5,5.86,10.883,10.883,0,0,0,2.179,5.335,11.281,11.281,0,0,0,4.614,3.467l.686.251c.232.074.469.134.7.2s.476.1.714.158.49.091.749.129c1.027.165,2.061.278,3.1.38a43.578,43.578,0,0,0,6.213.115,28.241,28.241,0,0,0,11.8-3.065,20.618,20.618,0,0,0,8.485-8.456l.374-.666c.113-.229.215-.463.323-.695.206-.467.442-.92.625-1.4l.533-1.443.134-.361.108-.37.214-.741.214-.742.107-.371.081-.379.326-1.515c.124-.5.181-1.018.261-1.53l.23-1.538a63.641,63.641,0,0,0,.078-12.505v-.007a1,1,0,0,1,1.99-.164,65.611,65.611,0,0,1-.084,12.912l-.24,1.61c-.084.536-.145,1.075-.275,1.605l-.344,1.6-.086.4-.113.394-.227.787-.227.787-.115.393-.142.386-.57,1.543c-.2.512-.449,1-.672,1.506-.116.249-.227.5-.349.748l-.4.722a22.636,22.636,0,0,1-9.289,9.249,30.221,30.221,0,0,1-12.634,3.3,45.569,45.569,0,0,1-6.5-.12c-1.077-.105-2.153-.224-3.221-.4-.266-.039-.532-.079-.819-.141s-.565-.1-.839-.186-.553-.152-.826-.239l-.808-.3a13.28,13.28,0,0,1-5.445-4.094,12.9,12.9,0,0,1-2.582-6.3,15.639,15.639,0,0,1,.58-6.721,13.173,13.173,0,0,1,1.439-3.116,9.888,9.888,0,0,1,2.366-2.607,7.111,7.111,0,0,1,3.37-1.415l.467-.046.469-.008c.3.009.586.038.88.057a8.106,8.106,0,0,1,.871.127,7.136,7.136,0,0,1,.861.2,9.532,9.532,0,0,1,3.164,1.573,10.52,10.52,0,0,1,1.307,1.2c.2.221.388.447.568.687.09.12.176.244.262.369s.16.243.26.426h0l-1.683-.132c.374-.488.741-.981,1.122-1.464.4-.471.813-.931,1.219-1.4.437-.442.869-.889,1.321-1.318l.712-.613.356-.306c.123-.1.252-.189.378-.284l.76-.562c.258-.182.536-.339.8-.509l.405-.25c.135-.082.282-.148.423-.223.285-.144.567-.292.855-.431a13.638,13.638,0,0,1,3.7-1.064,12.793,12.793,0,0,1,7.444,1.3,14.693,14.693,0,0,1,3.093,2.075,13.031,13.031,0,0,1,2.434,2.756.166.166,0,0,1-.244.219Z" transform="translate(-1144.83 -1682.701)" fill="#650000"/>
        <path id="Path_9901" data-name="Path 9901" d="M1598.8,1237.087c0,.1.01.2.013.307,1.487,37.251-24.975,36.427-24.975,36.427-10.078,0-17.384-1.842-22.623-4.813h0a.01.01,0,0,1-.006,0,25.074,25.074,0,0,1-3.656-2.519c-5.633-4.682-7.915-11.042-8.536-17.38a.984.984,0,0,1-.01-.1c-.109-1.128-.167-2.256-.179-3.374-.106-8.94,2.525-17.191,2.967-19.8a29.99,29.99,0,0,0,0-11.536c9.76,4.848,26.513,3.262,41.173-.436,11.92-3.009,22.459-7.418,26.731-10.9,4.387-3.576,7.985-4.451,10.59-4.355a6.558,6.558,0,0,1,5.864,4.3,6.8,6.8,0,0,1,.356,1.378c2.285,15.3-27.7,32.813-27.7,32.813" transform="translate(-1441.963 -1123.15)" fill="#e23b7c"/>
        <path id="Path_9902" data-name="Path 9902" d="M1587.582,1459.51c0,17.746-11.43,32.13-25.529,32.13-10.318,0-19.2-7.7-23.228-18.787-.106-8.94,2.525-17.191,2.967-19.8a29.989,29.989,0,0,0,0-11.536c9.76,4.848,26.513,3.262,41.173-.436a37.912,37.912,0,0,1,4.618,18.431" transform="translate(-1441.963 -1350.373)" fill="#fff"/>
        <path id="Path_9903" data-name="Path 9903" d="M2454.442,1795.534a7.962,7.962,0,0,1-1.288.413c-.224.052-.448.1-.68.141s-.463.076-.706.094a.318.318,0,0,1-.276-.508c.146-.194.3-.369.462-.541s.323-.334.488-.494a7.968,7.968,0,0,1,1.046-.858,1,1,0,0,1,1.1,1.673,1.071,1.071,0,0,1-.148.081" transform="translate(-2297.127 -1680.719)" fill="#650000"/>
        <g id="Group_57256" data-name="Group 57256" transform="translate(97.038 79.747)" opacity="0.3">
          <g id="Group_57255" data-name="Group 57255">
            <g id="Group_57254" data-name="Group 57254" clip-path="url(#clip-path-7)">
              <path id="Path_9904" data-name="Path 9904" d="M1601.471,1301.163c0,.1.01.2.013.307a4.416,4.416,0,0,0-2.086.82s-7.575,4.364-3.419,16.589c0,0-9.86,25.661-42.092,14.2h0a.009.009,0,0,1-.006,0,16.958,16.958,0,0,1-3.656-2.519c-3.2-2.788-7.485-8.155-8.536-17.38-.006-.035-.01-.07-.013-.106a0,0,0,0,0,0,0c.288.372,17.278,21.96,39.609.993,0,0,8.745-9.039,5.608-30.682a30.186,30.186,0,0,0,9.837-5.947s.773,2.156,1.715,5.342a10.288,10.288,0,0,0,16.413,5.047c5.888-4.906,11.929-11.889,13.963-20.861a6.8,6.8,0,0,1,.356,1.378c2.285,15.3-27.7,32.813-27.7,32.813" transform="translate(-1541.671 -1266.972)" fill="#650000"/>
            </g>
          </g>
        </g>
        <path id="Path_9905" data-name="Path 9905" d="M2718.562,1353.4c-1.162,1.8-3.124,2.6-4.383,1.784s-1.338-2.931-.176-4.729,3.124-2.6,4.383-1.784,1.338,2.931.176,4.729" transform="translate(-2542.404 -1263.484)" fill="#fff"/>
        <path id="Path_9906" data-name="Path 9906" d="M2760.159,1257.291c-.648,1-1.742,1.448-2.444.995s-.746-1.634-.1-2.637,1.742-1.448,2.444-.995.746,1.634.1,2.637" transform="translate(-2583.614 -1175.516)" fill="#fff"/>
        <path id="Path_9907" data-name="Path 9907" d="M2846.91,1337.591c-.648,1-1.742,1.448-2.444.995s-.746-1.634-.1-2.637,1.742-1.448,2.444-.995.746,1.634.1,2.637" transform="translate(-2664.904 -1250.761)" fill="#fff"/>
        <path id="Path_9908" data-name="Path 9908" d="M2824.522,1268.564c-.648,1-1.742,1.448-2.444.995s-.746-1.634-.1-2.637,1.742-1.448,2.444-.995.746,1.634.1,2.637" transform="translate(-2643.926 -1186.079)" fill="#fff"/>
        <g id="Group_57259" data-name="Group 57259" transform="translate(100.253 88.444)" opacity="0.3">
          <g id="Group_57258" data-name="Group 57258">
            <g id="Group_57257" data-name="Group 57257" clip-path="url(#clip-path-8)">
              <path id="Path_9909" data-name="Path 9909" d="M1592.76,1410.745s5.669,10.392,26.44,8.95,28.519-14.541,28.519-14.541-23.79,20.158-54.959,5.591" transform="translate(-1592.76 -1405.154)" fill="#650000"/>
            </g>
          </g>
        </g>
        <path id="Path_9910" data-name="Path 9910" d="M1559.111,1259.979c-.108,0-.177,0-.2,0-14.321,0-24.54-3.733-30.343-11.1-9.016-11.44-4.948-28.367-3.212-35.595.258-1.074.462-1.922.555-2.471a29.5,29.5,0,0,0,.018-11.119,1,1,0,0,1,1.41-1.145c10.217,5.073,27.167,2.465,36.361.458,12.778-2.788,25.592-7.7,30.468-11.674,3.888-3.171,7.678-4.71,11.257-4.578a7.594,7.594,0,0,1,7.172,6.525c2.214,14.84-23.526,31.013-27.672,33.513.486,13.329-2.506,23.365-8.9,29.837a24.853,24.853,0,0,1-16.914,7.345m-30.916-58.862a34.8,34.8,0,0,1-.319,10.031c-.1.617-.315,1.494-.582,2.605-1.669,6.946-5.578,23.213,2.838,33.892,5.405,6.858,15.1,10.335,28.806,10.335a23.173,23.173,0,0,0,15.692-6.775c6.061-6.159,8.844-15.889,8.273-28.919a1,1,0,0,1,.494-.906c.294-.172,29.38-17.342,27.222-31.8a5.6,5.6,0,0,0-5.271-4.824c-3.088-.113-6.421,1.275-9.921,4.13-5.172,4.218-18.045,9.184-31.3,12.077-8.955,1.954-25.1,4.445-35.927.156" transform="translate(-1427.063 -1108.305)" fill="#650000"/>
        <path id="Path_9911" data-name="Path 9911" d="M1311.476,39.775s-20.442,3.189-32.225,28.548a68.556,68.556,0,0,1-1.409-10.3c-.67-9.5-.171-24.29,6.512-38.877a5.849,5.849,0,0,1,7.6-2.929c6.42,2.741,16.791,9.284,19.521,23.554" transform="translate(-1197.202 -14.762)" fill="#e23b7c"/>
        <g id="Group_57262" data-name="Group 57262" transform="translate(80.639 0.991)" opacity="0.3">
          <g id="Group_57261" data-name="Group 57261">
            <g id="Group_57260" data-name="Group 57260" clip-path="url(#clip-path-9)">
              <path id="Path_9912" data-name="Path 9912" d="M1314.777,39.775s-20.442,3.189-32.225,28.548a68.536,68.536,0,0,1-1.409-10.3c3.228-5.59,9.68-14.762,19.844-20.66a7.864,7.864,0,0,0,2.687-11.163,27.989,27.989,0,0,0-12.18-10.262,5.839,5.839,0,0,1,3.762.28c6.421,2.741,16.791,9.284,19.521,23.554" transform="translate(-1281.143 -15.753)" fill="#650000"/>
            </g>
          </g>
        </g>
        <g id="Group_57265" data-name="Group 57265" transform="translate(80.418 0.994)" opacity="0.7">
          <g id="Group_57264" data-name="Group 57264">
            <g id="Group_57263" data-name="Group 57263" clip-path="url(#clip-path-10)">
              <path id="Path_9913" data-name="Path 9913" d="M1280.123,58.071c-.67-9.5-.171-24.29,6.512-38.877a5.822,5.822,0,0,1,3.839-3.209c.108-.028.219-.049.329-.071a5.835,5.835,0,0,0-6.45,3.28c-6.683,14.587-7.182,29.381-6.512,38.877a68.554,68.554,0,0,0,1.409,10.3q.8-1.728,1.656-3.318c-.276-1.748-.583-4.122-.784-6.978" transform="translate(-1277.619 -15.801)" fill="#fff"/>
            </g>
          </g>
        </g>
        <path id="Path_9914" data-name="Path 9914" d="M1264.4,54.569a.961.961,0,0,1-.1,0,1,1,0,0,1-.872-.758,76.743,76.743,0,0,1-1.651-15.7c-.107-8.548.989-21.408,6.816-34.128a6.881,6.881,0,0,1,8.9-3.43c6.289,2.684,17.264,9.408,20.11,24.285a1,1,0,0,1-.827,1.174,35.511,35.511,0,0,0-11.421,4.686c-5.859,3.549-14.094,10.472-20.052,23.3a1,1,0,0,1-.905.578M1274.833,2a4.867,4.867,0,0,0-4.421,2.809c-8.681,18.947-6.744,38.443-5.585,45.636,6.051-11.614,13.892-18.082,19.59-21.516a39.606,39.606,0,0,1,11.03-4.684c-2.952-13.3-12.948-19.391-18.733-21.86A4.782,4.782,0,0,0,1274.833,2" transform="translate(-1182.353 -0.009)" fill="#650000"/>
        <path id="Path_9915" data-name="Path 9915" d="M1383.078,181.261s-1.565-29.848,6.381-35.349c0,0,6.838,3.281,12.526,18.693,0,0-9.641,3.965-18.907,16.656" transform="translate(-1295.906 -136.728)" fill="#fff"/>
        <g id="Group_57268" data-name="Group 57268" transform="translate(87.047 9.184)" opacity="0.3">
          <g id="Group_57267" data-name="Group 57267">
            <g id="Group_57266" data-name="Group 57266" clip-path="url(#clip-path-11)">
              <path id="Path_9916" data-name="Path 9916" d="M1392.2,152.094c2.056,1.749,5.506,5.513,8.851,12.954.6-.306.939-.444.939-.444-5.688-15.412-12.526-18.693-12.526-18.693-7.946,5.5-6.381,35.349-6.381,35.349.243-.333.487-.657.731-.979-.005-7.959.615-21.9,4.746-27.721a2.484,2.484,0,0,1,3.639-.467" transform="translate(-1382.953 -145.912)" fill="#650000"/>
            </g>
          </g>
        </g>
        <path id="Path_9917" data-name="Path 9917" d="M1368.113,167.394a1,1,0,0,1-1-.946c-.065-1.241-1.5-30.471,6.81-36.223a1,1,0,0,1,1-.079c.294.141,7.269,3.636,13.031,19.247a1,1,0,0,1-.557,1.269c-.093.038-9.513,4.039-18.48,16.322a1,1,0,0,1-.806.41m6.459-35.139c-5.092,4.548-5.779,22.069-5.564,31.318,7.246-9.116,14.313-13.142,16.751-14.349-4.512-11.778-9.587-15.9-11.187-16.969" transform="translate(-1280.941 -121.862)" fill="#650000"/>
        <path id="Path_9918" data-name="Path 9918" d="M1453.607,125.6a4.2,4.2,0,0,1-.417-.362c-.136-.133-.271-.271-.4-.418a4.917,4.917,0,0,1-.74-1.007l0-.007a.288.288,0,0,1,.118-.391.3.3,0,0,1,.094-.031,3.258,3.258,0,0,1,1.315.1,5.225,5.225,0,0,1,.6.189,3.207,3.207,0,0,1,.563.274,1,1,0,0,1-1.072,1.686l-.048-.032Z" transform="translate(-1360.616 -115.595)" fill="#650000"/>
        <path id="Path_9919" data-name="Path 9919" d="M2110.046,39.775s20.442,3.189,32.225,28.548a68.536,68.536,0,0,0,1.409-10.3c.67-9.5.171-24.29-6.512-38.877a5.849,5.849,0,0,0-7.6-2.929c-6.42,2.741-16.791,9.284-19.521,23.554" transform="translate(-1977.233 -14.762)" fill="#e23b7c"/>
        <g id="Group_57271" data-name="Group 57271" transform="translate(132.813 0.991)" opacity="0.3">
          <g id="Group_57270" data-name="Group 57270">
            <g id="Group_57269" data-name="Group 57269" clip-path="url(#clip-path-9)">
              <path id="Path_9920" data-name="Path 9920" d="M2110.046,39.775s20.442,3.189,32.225,28.548a68.536,68.536,0,0,0,1.409-10.3c-3.228-5.59-9.68-14.762-19.844-20.66a7.863,7.863,0,0,1-2.686-11.163,27.987,27.987,0,0,1,12.18-10.262,5.839,5.839,0,0,0-3.762.28c-6.42,2.741-16.791,9.284-19.521,23.554" transform="translate(-2110.046 -15.753)" fill="#650000"/>
            </g>
          </g>
        </g>
        <g id="Group_57274" data-name="Group 57274" transform="translate(153.486 0.994)" opacity="0.7">
          <g id="Group_57273" data-name="Group 57273">
            <g id="Group_57272" data-name="Group 57272" clip-path="url(#clip-path-10)">
              <path id="Path_9921" data-name="Path 9921" d="M2449.16,58.071c.67-9.5.171-24.29-6.512-38.877a5.821,5.821,0,0,0-3.839-3.209c-.108-.028-.219-.049-.329-.071a5.835,5.835,0,0,1,6.45,3.28c6.683,14.587,7.182,29.381,6.512,38.877a68.554,68.554,0,0,1-1.409,10.3q-.8-1.728-1.656-3.318c.276-1.748.583-4.122.784-6.978" transform="translate(-2438.48 -15.801)" fill="#fff"/>
            </g>
          </g>
        </g>
        <path id="Path_9922" data-name="Path 9922" d="M2127.409,54.564a1,1,0,0,1-.905-.577c-5.958-12.825-14.193-19.748-20.052-23.3A35.5,35.5,0,0,0,2095.03,26a1,1,0,0,1-.826-1.174c2.846-14.877,13.821-21.6,20.11-24.285a6.879,6.879,0,0,1,8.9,3.429c5.828,12.72,6.924,25.58,6.817,34.128a76.785,76.785,0,0,1-1.651,15.7,1,1,0,0,1-.872.758.985.985,0,0,1-.1,0m-31.045-30.322a39.6,39.6,0,0,1,11.03,4.684c5.7,3.433,13.538,9.9,19.589,21.514,1.156-7.2,3.087-26.707-5.584-45.634a4.869,4.869,0,0,0-6.3-2.425c-5.786,2.469-15.782,8.562-18.733,21.86" transform="translate(-1962.372 -0.004)" fill="#650000"/>
        <path id="Path_9923" data-name="Path 9923" d="M2259.133,181.261s1.565-29.848-6.381-35.349c0,0-6.838,3.281-12.526,18.693,0,0,9.641,3.965,18.907,16.656" transform="translate(-2099.219 -136.728)" fill="#fff"/>
        <g id="Group_57277" data-name="Group 57277" transform="translate(141.007 9.184)" opacity="0.3">
          <g id="Group_57276" data-name="Group 57276">
            <g id="Group_57275" data-name="Group 57275" clip-path="url(#clip-path-11)">
              <path id="Path_9924" data-name="Path 9924" d="M2250.017,152.094c-2.056,1.749-5.506,5.513-8.851,12.954-.6-.306-.939-.444-.939-.444,5.688-15.412,12.526-18.693,12.526-18.693,7.946,5.5,6.381,35.349,6.381,35.349-.243-.333-.487-.657-.731-.979.005-7.959-.615-21.9-4.747-27.721a2.484,2.484,0,0,0-3.639-.467" transform="translate(-2240.227 -145.912)" fill="#650000"/>
            </g>
          </g>
        </g>
        <path id="Path_9925" data-name="Path 9925" d="M2244.269,167.395a1,1,0,0,1-.806-.41c-8.967-12.282-18.387-16.283-18.481-16.322a1,1,0,0,1-.556-1.269c5.762-15.612,12.736-19.106,13.031-19.247a1,1,0,0,1,1,.079c8.308,5.752,6.875,34.981,6.81,36.223a1,1,0,0,1-1,.946m-17.646-18.17c2.438,1.207,9.5,5.233,16.75,14.349.215-9.247-.471-26.76-5.56-31.315-1.6,1.083-6.708,5.272-11.191,16.965" transform="translate(-2084.354 -121.863)" fill="#650000"/>
        <path id="Path_9926" data-name="Path 9926" d="M2423.4,123.953a3.213,3.213,0,0,1,.563-.274,5.208,5.208,0,0,1,.6-.189,3.259,3.259,0,0,1,1.315-.1.288.288,0,0,1,.243.327.292.292,0,0,1-.031.093l0,.008a4.911,4.911,0,0,1-.74,1.007c-.131.147-.265.284-.4.418a4.2,4.2,0,0,1-.417.362l0,0a1,1,0,1,1-1.172-1.617l.05-.034" transform="translate(-2270.431 -115.594)" fill="#650000"/>
        <path id="Path_9927" data-name="Path 9927" d="M1305.4,379.646a27.657,27.657,0,0,1-17.3,13.508c-9.9,10.879-29.746,10.513-29.746,10.513s-19.843.365-29.746-10.513a27.658,27.658,0,0,1-17.3-13.508s.345-1.666,2.958-2.559c0,0-3.049-2.362-3.232-7.952,0,0,3-.667,4.313-5.014.063-.214.123-.436.18-.67,1.192-4.952,6.07-38.874,42.824-38.874s41.632,33.922,42.824,38.874,4.492,5.685,4.492,5.685c-.183,5.59-3.232,7.952-3.232,7.952,2.613.893,2.958,2.559,2.958,2.559" transform="translate(-1134.813 -304.147)" fill="#e23b7c"/>
        <path id="Path_9928" data-name="Path 9928" d="M1305.4,951.769a27.657,27.657,0,0,1-17.3,13.508c-9.9,10.879-29.746,10.513-29.746,10.513s-19.843.365-29.746-10.513a27.658,27.658,0,0,1-17.3-13.508s.345-1.666,2.958-2.559c0,0-3.049-2.362-3.232-7.952a2.792,2.792,0,0,0,.473-.168c.9-.382,2.846-1.569,3.839-4.846.282-.134,9.538-4.438,21.695,4.829,12.344,9.413,15.6,9.413,21.309,9.413s8.965,0,21.309-9.413c12.156-9.267,21.412-4.963,21.694-4.829,1.315,4.347,4.313,5.014,4.313,5.014-.183,5.591-3.232,7.952-3.232,7.952,2.613.893,2.958,2.559,2.958,2.559" transform="translate(-1134.813 -876.271)" fill="#fff"/>
        <path id="Path_9929" data-name="Path 9929" d="M1621,805.007a19.6,19.6,0,0,0-4.2-1.956,1.847,1.847,0,0,1-1.341-1.784,2.381,2.381,0,0,1,2.262-2.685c2.7-.208,5,2.143,4.96,5.479a1.111,1.111,0,0,1-1.677.946" transform="translate(-1513.774 -748.305)" fill="#fff"/>
        <path id="Path_9930" data-name="Path 9930" d="M2197.011,805.007a19.606,19.606,0,0,1,4.2-1.956,1.847,1.847,0,0,0,1.341-1.784,2.381,2.381,0,0,0-2.262-2.685c-2.7-.208-5,2.143-4.96,5.479a1.111,1.111,0,0,0,1.677.946" transform="translate(-2057.152 -748.305)" fill="#fff"/>
        <g id="Group_57280" data-name="Group 57280" transform="translate(76.227 20.43)" opacity="0.7">
          <g id="Group_57279" data-name="Group 57279">
            <g id="Group_57278" data-name="Group 57278" clip-path="url(#clip-path-15)">
              <path id="Path_9931" data-name="Path 9931" d="M1301.179,363.45c-1.192-4.952-6.07-38.874-42.824-38.874s-41.632,33.922-42.824,38.874c-.057.234-.117.456-.18.67-1.315,4.347-4.313,5.014-4.313,5.014a14.271,14.271,0,0,0,.292,2.474c.785-.293,2.955-1.4,4.021-4.922.063-.214.123-.436.18-.67,1-4.159,4.606-28.752,27.511-36.52.681.85,3.473,1.114,6.691.571,3.357-.566,5.988-1.81,6.169-2.867.8-.034,1.617-.058,2.453-.058,36.754,0,41.632,33.922,42.824,38.874.977,4.055,3.368,5.281,4.2,5.591a14.293,14.293,0,0,0,.292-2.474s-3.3-.736-4.492-5.685" transform="translate(-1211.039 -324.576)" fill="#fff"/>
            </g>
          </g>
        </g>
        <g id="Group_57283" data-name="Group 57283" transform="translate(115.007 81.214)" opacity="0.3">
          <g id="Group_57282" data-name="Group 57282">
            <g id="Group_57281" data-name="Group 57281" clip-path="url(#clip-path-16)">
              <path id="Path_9932" data-name="Path 9932" d="M1835.671,1290.279s-3.249,4.722-8.521,0c0,0,1.456,6.234,8.521,3.85,7.065,2.384,8.521-3.85,8.521-3.85-5.272,4.722-8.521,0-8.521,0" transform="translate(-1827.15 -1290.279)" fill="#650000"/>
            </g>
          </g>
        </g>
        <g id="Group_57286" data-name="Group 57286" transform="translate(76.227 64.82)" opacity="0.3">
          <g id="Group_57285" data-name="Group 57285">
            <g id="Group_57284" data-name="Group 57284" clip-path="url(#clip-path-17)">
              <path id="Path_9933" data-name="Path 9933" d="M1302.44,1037.935s3.049-2.362,3.232-7.952a2.768,2.768,0,0,1-.473-.168c-1.495,2.419-2.7,6.234-8.2,7.776a8.421,8.421,0,0,0,4.553,3.392s-3.311,3.274-7.18,2.307a2.122,2.122,0,0,0-2.24.778c-2.785,3.781-12.557,14.508-33.772,14.508s-30.987-10.727-33.772-14.508a2.122,2.122,0,0,0-2.24-.778c-3.869.967-7.18-2.307-7.18-2.307a8.423,8.423,0,0,0,4.553-3.392c-5.5-1.543-6.71-5.358-8.2-7.776a2.774,2.774,0,0,1-.474.168c.183,5.591,3.232,7.952,3.232,7.952-2.613.893-2.958,2.559-2.958,2.559a27.658,27.658,0,0,0,17.3,13.508c9.9,10.879,29.747,10.513,29.747,10.513s19.843.365,29.746-10.513a27.658,27.658,0,0,0,17.3-13.508s-.345-1.666-2.958-2.559" transform="translate(-1211.039 -1029.815)" fill="#650000"/>
            </g>
          </g>
        </g>
        <path id="Path_9934" data-name="Path 9934" d="M1481.427,900.611a.793.793,0,0,0-.4-.631,18.594,18.594,0,0,0-4.248-1.647,16.635,16.635,0,0,1-2.563-.927c-9.319-4.138-16.35-1.024-19.734,1.22a1.967,1.967,0,0,1-1.97.115c-3.917-1.98-8.194-1.144-10.6-.369a1.971,1.971,0,0,1-1.741-.261c-3.016-2.122-10.227-5.814-19.869-1.6a33.253,33.253,0,0,1-3.621,1.383,18.217,18.217,0,0,0-3.736,1.585.794.794,0,0,0-.392.638l-.163,2.55a.788.788,0,0,0,.538.8,9.5,9.5,0,0,1,3.008,1.768,14.02,14.02,0,0,0,2.113,7.3c2.042,3.1,5.443,4.926,10.11,5.435q.456.049.9.078c4.015.256,7.2-.811,9.476-3.178,3.679-3.825,3.874-9.976,3.714-13.006,1.728-.656,6.112-1.929,9.557.4-.161,2.717-.112,9.528,3.924,13.572,2.32,2.325,5.524,3.333,9.533,3q.441-.036.9-.094c4.656-.595,8.024-2.486,10.008-5.621a14.019,14.019,0,0,0,1.978-7.34,9.5,9.5,0,0,1,2.975-1.824.788.788,0,0,0,.524-.811Zm-44.747,12.495c-1.865,1.936-4.638,2.719-8.247,2.325-3.873-.422-6.649-1.868-8.251-4.3-2.252-3.416-1.766-8-1.332-10.251a1.91,1.91,0,0,1,1.008-1.327c9.83-5.084,16.8-.964,19.172.864a1.619,1.619,0,0,1,.628,1.178c.166,2.449.175,8.239-2.978,11.511M1474,911.763c-1.557,2.46-4.305,3.957-8.17,4.451-3.6.461-6.387-.271-8.288-2.172-3.213-3.214-3.311-9-3.19-11.454a1.619,1.619,0,0,1,.606-1.189c2.338-1.871,9.23-6.119,19.153-1.218a1.91,1.91,0,0,1,1.032,1.308c.475,2.241,1.046,6.817-1.142,10.274" transform="translate(-1323.484 -838.274)" fill="#650000"/>
        <path id="Path_9935" data-name="Path 9935" d="M1243.807,389.812c-.159,0-.269,0-.326,0-1.057.017-20.187.172-30.27-10.608a28.467,28.467,0,0,1-17.655-13.945,1,1,0,0,1-.095-.668,4.392,4.392,0,0,1,2.248-2.689,12.684,12.684,0,0,1-2.543-7.589,1,1,0,0,1,.781-1.007c.1-.025,2.722-.722,3.738-4.943.069-.285.15-.668.249-1.137.853-4.03,2.85-13.466,9.09-22.107,7.856-10.878,19.449-16.394,34.457-16.394s26.6,5.516,34.457,16.394c6.24,8.64,8.237,18.077,9.09,22.107.1.468.18.851.249,1.136,1.016,4.221,3.639,4.918,3.75,4.946a1.012,1.012,0,0,1,.77,1,12.685,12.685,0,0,1-2.543,7.589,4.393,4.393,0,0,1,2.248,2.689,1,1,0,0,1-.095.668,28.467,28.467,0,0,1-17.655,13.945c-9.539,10.2-27.172,10.611-29.945,10.611m-.326-2h.169c1.837,0,19.807-.265,28.838-10.187a1,1,0,0,1,.534-.305,26.923,26.923,0,0,0,16.4-12.594,3.783,3.783,0,0,0-2.18-1.551,1,1,0,0,1-.288-1.734c.1-.079,2.438-1.995,2.8-6.491-1.221-.573-3.466-2.139-4.425-6.124-.072-.3-.157-.7-.261-1.19-5.185-24.5-19.179-36.918-41.594-36.918s-36.408,12.421-41.593,36.917c-.1.491-.189.892-.261,1.19-.959,3.985-3.2,5.551-4.425,6.124.367,4.5,2.706,6.412,2.81,6.495a1,1,0,0,1-.293,1.729,3.767,3.767,0,0,0-2.179,1.554,26.92,26.92,0,0,0,16.4,12.591,1,1,0,0,1,.533.305c9.476,10.412,28.794,10.194,28.989,10.186Z" transform="translate(-1119.939 -289.291)" fill="#650000"/>
        <path id="Path_9936" data-name="Path 9936" d="M1423.972,1323.985a10.523,10.523,0,0,1-1.338-1.455,13.863,13.863,0,0,1-1.077-1.61,11.255,11.255,0,0,1-.84-1.743,8.12,8.12,0,0,1-.48-1.878.141.141,0,0,1,.244-.114l0,0c.435.477.8.961,1.209,1.419.188.236.4.458.584.691.2.222.39.455.593.674.4.443.8.878,1.217,1.3s.843.851,1.218,1.226l.032.032a1,1,0,0,1-1.366,1.453" transform="translate(-1330.842 -1234.236)" fill="#650000"/>
        <path id="Path_9937" data-name="Path 9937" d="M2419.915,1322.5c.375-.375.815-.808,1.218-1.226s.817-.857,1.217-1.3c.2-.219.389-.452.594-.674.186-.233.4-.454.584-.691.4-.458.774-.942,1.209-1.419l0,0a.141.141,0,0,1,.245.113,8.119,8.119,0,0,1-.48,1.878,11.264,11.264,0,0,1-.84,1.743,13.883,13.883,0,0,1-1.077,1.61,10.538,10.538,0,0,1-1.338,1.455,1,1,0,0,1-1.369-1.451Z" transform="translate(-2267.294 -1234.237)" fill="#650000"/>
        <path id="Path_9938" data-name="Path 9938" d="M1901.282,1162.586a11.9,11.9,0,0,0-3.521.5.951.951,0,0,0-.595,1.053,4.13,4.13,0,0,0,8.232,0,.952.952,0,0,0-.595-1.053,11.9,11.9,0,0,0-3.521-.5" transform="translate(-1777.739 -1089.409)" fill="#650000"/>
        <path id="Path_9939" data-name="Path 9939" d="M1948.614,1274.716c.023.026.094.1.148.154l.178.176c.122.117.252.228.385.335a6.893,6.893,0,0,0,.833.578,4.241,4.241,0,0,0,3.856.31,9.618,9.618,0,0,0,2-1.074h0a.232.232,0,0,1,.324.322,6.539,6.539,0,0,1-1.774,1.805,5.11,5.11,0,0,1-1.2.6,4.658,4.658,0,0,1-1.362.278,5.56,5.56,0,0,1-2.725-.548,6.752,6.752,0,0,1-1.172-.706c-.18-.138-.356-.28-.525-.434-.085-.077-.169-.154-.25-.238s-.152-.158-.257-.283a1,1,0,0,1,1.5-1.313Z" transform="translate(-1824.303 -1194.14)" fill="#650000"/>
        <path id="Path_9940" data-name="Path 9940" d="M1836.484,1275.992c-.105.125-.171.194-.257.283s-.166.161-.25.238c-.169.154-.345.3-.525.434a6.76,6.76,0,0,1-1.172.706,5.561,5.561,0,0,1-2.725.548,4.658,4.658,0,0,1-1.362-.278,5.113,5.113,0,0,1-1.2-.6,6.533,6.533,0,0,1-1.773-1.805.233.233,0,0,1,.323-.322h0a9.622,9.622,0,0,0,2,1.074,4.241,4.241,0,0,0,3.856-.31,6.864,6.864,0,0,0,.833-.578c.133-.107.263-.218.385-.335l.178-.176c.054-.052.125-.128.148-.154l.032-.036a1,1,0,0,1,1.5,1.312" transform="translate(-1712.174 -1194.14)" fill="#650000"/>
        <path id="Path_9941" data-name="Path 9941" d="M1569.189,982.144c-1.206-.739-2.371-1.461-3.528-2.143s-2.3-1.336-3.45-1.937c-.567-.314-1.156-.581-1.723-.878-.587-.257-1.149-.558-1.737-.8-1.149-.541-2.327-.962-3.482-1.482l-.121-.054a2.141,2.141,0,0,1,1.4-4.028,17.328,17.328,0,0,1,4.154,1.61,21.556,21.556,0,0,1,1.9,1.145c.3.21.6.43.893.65.146.111.3.217.439.332l.422.354a20.208,20.208,0,0,1,3.048,3.129,14.885,14.885,0,0,1,2.215,3.763.283.283,0,0,1-.411.344Z" transform="translate(-1456.08 -909.659)" fill="#650000"/>
        <path id="Path_9942" data-name="Path 9942" d="M2121.444,981.8a14.886,14.886,0,0,1,2.215-3.763,20.209,20.209,0,0,1,3.048-3.129l.421-.354c.143-.116.292-.221.439-.332.294-.22.59-.44.893-.65a21.563,21.563,0,0,1,1.9-1.145,17.333,17.333,0,0,1,4.154-1.61,2.141,2.141,0,0,1,1.4,4.028l-.122.055c-1.155.52-2.333.941-3.482,1.482-.588.238-1.15.538-1.737.8-.567.3-1.156.564-1.723.878-1.151.6-2.293,1.255-3.45,1.938s-2.322,1.4-3.528,2.142l-.017.01a.283.283,0,0,1-.412-.344" transform="translate(-1987.896 -909.652)" fill="#650000"/>
        <path id="Path_9943" data-name="Path 9943" d="M1822.333,1877.287c-2.516,26.3-23.427,25.728-33.546,24.074a12,12,0,0,1-9.427-7.787,11.105,11.105,0,0,1-.458-1.7c-1.311-6.905,2.5-13.766,7.614-13.635a8.556,8.556,0,0,1,7.245,4.1c12.462-16.685,24.1-2.781,24.1-2.781l4.428-14.317a66.887,66.887,0,0,1,.045,12.036" transform="translate(-1666.687 -1747.846)" fill="#e23b7c"/>
        <g id="Group_57289" data-name="Group 57289" transform="translate(126.693 131.447)" opacity="0.3">
          <g id="Group_57288" data-name="Group 57288">
            <g id="Group_57287" data-name="Group 57287" clip-path="url(#clip-path-18)">
              <path id="Path_9944" data-name="Path 9944" d="M2014.386,2101.762s4.549-3.382.978-13.407a9.581,9.581,0,0,1-2.541,2.815s2.438,2.987,1.562,10.592" transform="translate(-2012.824 -2088.355)" fill="#650000"/>
            </g>
          </g>
        </g>
        <g id="Group_57292" data-name="Group 57292" transform="translate(112.672 129.44)" opacity="0.3">
          <g id="Group_57291" data-name="Group 57291">
            <g id="Group_57290" data-name="Group 57290" clip-path="url(#clip-path-19)">
              <path id="Path_9945" data-name="Path 9945" d="M1833.029,2056.464c-2.516,26.3-23.427,25.728-33.546,24.074a12,12,0,0,1-9.427-7.786c.788,1.232,5.376,7.465,14.683,1.9a3.78,3.78,0,0,1,2.714-.471c4.793,1.008,20.362,2.588,25.576-17.72" transform="translate(-1790.055 -2056.464)" fill="#650000"/>
            </g>
          </g>
        </g>
        <path id="Path_9946" data-name="Path 9946" d="M2004.706,2121.305c.082.145.133.241.187.359s.1.224.151.335c.1.222.173.449.255.673a11.074,11.074,0,0,1,.369,1.368,15,15,0,0,1,.31,2.774,15.465,15.465,0,0,1-.177,2.744,16.659,16.659,0,0,1-.616,2.638.155.155,0,0,1-.3-.052v-.011c.02-.443.067-.879.074-1.316s.02-.872-.013-1.306l-.034-.647-.07-.643c-.019-.213-.053-.426-.088-.636s-.058-.423-.106-.631a16.416,16.416,0,0,0-.682-2.435c-.137-.394-.3-.774-.461-1.153-.084-.185-.171-.372-.258-.551-.043-.091-.087-.18-.132-.265l-.122-.229-.03-.055a1,1,0,0,1,1.747-.962" transform="translate(-1876.776 -1987.311)" fill="#650000"/>
        <path id="Path_9947" data-name="Path 9947" d="M1862.6,2246c-.039,2.141-1.286,3.854-2.785,3.827s-2.682-1.785-2.642-3.926,1.286-3.854,2.785-3.827,2.682,1.785,2.642,3.926" transform="translate(-1740.278 -2100.946)" fill="#fff"/>
        <path id="Path_9948" data-name="Path 9948" d="M1835.4,2158.686c-.022,1.194-.717,2.149-1.553,2.134s-1.5-1-1.473-2.189.717-2.149,1.553-2.134,1.5,1,1.473,2.189" transform="translate(-1717.039 -2020.76)" fill="#fff"/>
        <path id="Path_9949" data-name="Path 9949" d="M1951.446,2181.2c-.022,1.194-.717,2.149-1.553,2.134s-1.5-1-1.473-2.189.717-2.149,1.552-2.134,1.5,1,1.473,2.189" transform="translate(-1825.78 -2041.861)" fill="#fff"/>
        <path id="Path_9950" data-name="Path 9950" d="M1896.04,2134.343c-.022,1.194-.717,2.149-1.553,2.134s-1.5-1-1.473-2.189.717-2.149,1.552-2.134,1.5,1,1.473,2.189" transform="translate(-1773.861 -1997.95)" fill="#fff"/>
        <path id="Path_9951" data-name="Path 9951" d="M1802.9,1862.233a24.412,24.412,0,0,0-5.916-3.631,12.991,12.991,0,0,0-3.232-.892,10.956,10.956,0,0,0-3.288.065,12.594,12.594,0,0,0-3.131,1.01l-.735.392c-.121.068-.248.126-.365.2l-.352.229c-.233.155-.473.3-.7.46l-.676.509c-.112.085-.227.167-.337.256l-.321.281-.642.56c-.417.388-.821.8-1.229,1.2-.383.43-.773.853-1.151,1.288-.359.455-.732.9-1.1,1.347l-.021.026a1,1,0,0,1-1.413.144,1.022,1.022,0,0,1-.249-.3h0c-.027-.05-.1-.164-.156-.251s-.129-.187-.2-.279c-.139-.186-.291-.364-.446-.54a8.581,8.581,0,0,0-1.039-.95,7.532,7.532,0,0,0-2.5-1.242,5.327,5.327,0,0,0-.686-.161,6.306,6.306,0,0,0-.7-.1c-.235-.014-.479-.04-.708-.047l-.327.005-.325.032a5.111,5.111,0,0,0-2.426,1.03,9.483,9.483,0,0,0-3.1,4.731,13.649,13.649,0,0,0-.5,5.86,10.882,10.882,0,0,0,2.179,5.335,11.279,11.279,0,0,0,4.614,3.467l.686.251c.232.073.469.134.7.2s.476.1.713.157.49.091.749.129c1.027.164,2.061.278,3.1.38a43.541,43.541,0,0,0,6.213.115,28.236,28.236,0,0,0,11.8-3.065,20.619,20.619,0,0,0,8.485-8.455l.374-.666c.113-.229.215-.463.323-.695.206-.468.442-.921.625-1.4l.533-1.443.134-.361.108-.37.214-.742.214-.741.107-.371.081-.379.326-1.515c.124-.5.181-1.018.261-1.53l.23-1.538a63.659,63.659,0,0,0,.078-12.505v-.007a1,1,0,1,1,1.99-.164,65.609,65.609,0,0,1-.085,12.912l-.24,1.61c-.084.536-.145,1.075-.275,1.606l-.344,1.6-.086.4-.113.394-.227.787-.227.787-.115.393-.142.386-.57,1.543c-.2.512-.449,1-.672,1.506-.116.249-.227.5-.349.748l-.4.722a22.634,22.634,0,0,1-9.288,9.249,30.213,30.213,0,0,1-12.634,3.3,45.569,45.569,0,0,1-6.5-.12c-1.077-.106-2.153-.224-3.221-.4-.266-.039-.532-.079-.819-.141s-.565-.1-.839-.186-.553-.152-.826-.239l-.808-.3a13.28,13.28,0,0,1-5.445-4.094,12.9,12.9,0,0,1-2.582-6.3,15.638,15.638,0,0,1,.58-6.721,13.171,13.171,0,0,1,1.439-3.116,9.893,9.893,0,0,1,2.366-2.607,7.113,7.113,0,0,1,3.37-1.415l.467-.045.469-.008c.3.009.586.038.88.057a8.111,8.111,0,0,1,.871.127,7.043,7.043,0,0,1,.861.2,9.52,9.52,0,0,1,3.164,1.573,10.511,10.511,0,0,1,1.307,1.195c.2.222.388.447.567.687.09.12.176.244.262.37s.16.243.261.426h0l-1.683-.132c.374-.488.741-.981,1.122-1.464.4-.471.813-.931,1.22-1.4.437-.442.869-.889,1.321-1.319l.712-.613.356-.306c.123-.1.252-.189.378-.284l.76-.562c.258-.182.536-.339.8-.509l.405-.249c.136-.082.282-.148.423-.223.285-.144.567-.292.855-.431a13.656,13.656,0,0,1,3.7-1.064,12.791,12.791,0,0,1,7.444,1.3,14.708,14.708,0,0,1,3.093,2.075,13.037,13.037,0,0,1,2.434,2.756.166.166,0,0,1-.244.219Z" transform="translate(-1651.858 -1730.405)" fill="#650000"/>
        <path id="Path_9952" data-name="Path 9952" d="M103.141,1587.235l-10.517-48.8A6.779,6.779,0,0,0,86,1533.086H20.336a4.472,4.472,0,0,0-4.348,5.52l11.716,48.63Z" transform="translate(-14.863 -1436.589)" fill="#d0cfe5"/>
        <path id="Path_9953" data-name="Path 9953" d="M560.857,2005.446c-4.2-.31-11.249,9.3.493,8.76s5.036-8.353-.493-8.76" transform="translate(-519.964 -1879.21)" fill="#650000"/>
        <path id="Path_9954" data-name="Path 9954" d="M496.4,1944.827a2.668,2.668,0,1,1-2.668-2.668,2.668,2.668,0,0,1,2.668,2.668" transform="translate(-460.158 -1819.914)" fill="#650000"/>
        <path id="Path_9955" data-name="Path 9955" d="M718.126,1938.892a2.668,2.668,0,1,1-2.668-2.668,2.668,2.668,0,0,1,2.668,2.668" transform="translate(-667.924 -1814.352)" fill="#650000"/>
        <path id="Path_9956" data-name="Path 9956" d="M586.922,1865.877a3.415,3.415,0,1,1-3.415-3.415,3.415,3.415,0,0,1,3.415,3.415" transform="translate(-543.578 -1745.233)" fill="#650000"/>
        <g id="Group_57295" data-name="Group 57295" transform="translate(11.529 96.497)" opacity="0.3">
          <g id="Group_57294" data-name="Group 57294">
            <g id="Group_57293" data-name="Group 57293" clip-path="url(#clip-path-20)">
              <path id="Path_9957" data-name="Path 9957" d="M245.871,1534.592a6.775,6.775,0,0,0-.259-.88h0a6.757,6.757,0,0,0-2.844-.626h-1.363c10.3,40.358-.039,48.7-39.324,48.7H183.163l.386,1.6h72.839Z" transform="translate(-183.163 -1533.086)" fill="#650000"/>
            </g>
          </g>
        </g>
        <g id="Group_57298" data-name="Group 57298" transform="translate(0.998 96.497)" opacity="0.7">
          <g id="Group_57297" data-name="Group 57297">
            <g id="Group_57296" data-name="Group 57296" clip-path="url(#clip-path-21)">
              <path id="Path_9958" data-name="Path 9958" d="M91.632,1536.1A6.775,6.775,0,0,0,86,1533.086H20.336a4.472,4.472,0,0,0-4.348,5.52l11.716,48.63h2.587L18.57,1538.583a2.376,2.376,0,0,1,2.31-2.933h3.761a3.464,3.464,0,0,1,1.88.59,11.714,11.714,0,0,0,5.742,1.172A11.714,11.714,0,0,0,38,1536.24a3.464,3.464,0,0,1,1.88-.59H89.2a6.756,6.756,0,0,1,2.43.455" transform="translate(-15.862 -1533.086)" fill="#fff"/>
            </g>
          </g>
        </g>
        <path id="Path_9959" data-name="Path 9959" d="M88.278,1573.37H12.841a1,1,0,0,1-.971-.764L.154,1523.976a5.471,5.471,0,0,1,5.318-6.752H71.134a7.82,7.82,0,0,1,7.6,6.139l10.517,48.8a1,1,0,0,1-.976,1.208m-74.651-2H87.041l-10.256-47.59a5.812,5.812,0,0,0-5.651-4.563H5.472a3.474,3.474,0,0,0-3.377,4.288Z" transform="translate(0 -1421.725)" fill="#650000"/>
        <path id="Path_9960" data-name="Path 9960" d="M282.22,2375.018H168.9a2.6,2.6,0,1,1,0-5.209H282.22a2.6,2.6,0,1,1,0,5.209" transform="translate(-155.828 -2220.645)" fill="#d0cfe5"/>
        <g id="Group_57301" data-name="Group 57301" transform="translate(10.467 150.646)" opacity="0.3">
          <g id="Group_57300" data-name="Group 57300">
            <g id="Group_57299" data-name="Group 57299" clip-path="url(#clip-path-22)">
              <path id="Path_9961" data-name="Path 9961" d="M281.489,2394.861H169.632a3.5,3.5,0,0,1-3.008-1.484,2.134,2.134,0,0,0-.328,1.121c0,1.439,1.494,2.6,3.336,2.6H281.489c1.843,0,3.337-1.166,3.337-2.6a2.134,2.134,0,0,0-.328-1.121,3.5,3.5,0,0,1-3.008,1.484" transform="translate(-166.296 -2393.377)" fill="#650000"/>
            </g>
          </g>
        </g>
        <path id="Path_9962" data-name="Path 9962" d="M267.359,2361.154H154.039a3.6,3.6,0,1,1,0-7.206h113.32a3.6,3.6,0,1,1,0,7.206m-113.32-5.209a1.606,1.606,0,1,0,0,3.213h113.32a1.606,1.606,0,1,0,0-3.213Z" transform="translate(-140.967 -2205.783)" fill="#650000"/>
        <path id="Path_9963" data-name="Path 9963" d="M1365.754,2361.154a.994.994,0,0,1-.617-.214,4.189,4.189,0,0,1-1.851-3.293,4.881,4.881,0,0,1,1.851-3.486,1,1,0,0,1,1.239,1.566,2.93,2.93,0,0,0-1.093,1.927,2.34,2.34,0,0,0,1.09,1.717,1,1,0,0,1-.618,1.782" transform="translate(-1277.476 -2205.782)" fill="#650000"/>
        <path id="Path_9964" data-name="Path 9964" d="M323.806,489.475a18.087,18.087,0,1,0-6.232,5.871l8.325,2.125Z" transform="translate(-272.222 -432.427)" fill="#fff"/>
        <path id="Path_9965" data-name="Path 9965" d="M306.251,495.524a18.281,18.281,0,1,1,15.378-8.364l2.143,8.187-8.523-2.175a18.105,18.105,0,0,1-7.637,2.3q-.683.05-1.361.05m.056-36.236q-.667,0-1.338.049a17.959,17.959,0,1,0,10.181,33.53l.055-.031,8.128,2.075-2.043-7.805.038-.058a17.959,17.959,0,0,0-15.021-27.759" transform="translate(-269.876 -430.084)" fill="#650000"/>
        <g id="Group_57304" data-name="Group 57304" transform="translate(18.286 29.046)" opacity="0.5">
          <g id="Group_57303" data-name="Group 57303">
            <g id="Group_57302" data-name="Group 57302" clip-path="url(#clip-path-23)">
              <path id="Path_9966" data-name="Path 9966" d="M307.586,465.394a18.118,18.118,0,0,1,19.142,14.81,18.116,18.116,0,1,0-35.926,2.637,18.118,18.118,0,0,1,16.784-17.447" transform="translate(-290.507 -461.473)" fill="#fff"/>
            </g>
          </g>
        </g>
        <path id="Path_9967" data-name="Path 9967" d="M289.327,479.737a19.416,19.416,0,1,1,16.6-9.312l1.951,7.453a1.294,1.294,0,0,1-1.572,1.581l-7.829-2a19.232,19.232,0,0,1-7.708,2.224q-.725.053-1.446.053m.055-36.236q-.624,0-1.253.046a16.823,16.823,0,1,0,9.536,31.408,1.292,1.292,0,0,1,.96-.129l6.2,1.582-1.537-5.871a1.294,1.294,0,0,1,.168-1.035,16.822,16.822,0,0,0-14.071-26" transform="translate(-252.953 -413.161)" fill="#650000"/>
        <g id="Group_57307" data-name="Group 57307" transform="translate(18.286 45.677)" opacity="0.3">
          <g id="Group_57306" data-name="Group 57306">
            <g id="Group_57305" data-name="Group 57305" clip-path="url(#clip-path-24)">
              <path id="Path_9968" data-name="Path 9968" d="M323.919,736.889a20.928,20.928,0,0,1-33.344-11.2,18.127,18.127,0,0,0,19.379,19.555,18.042,18.042,0,0,0,7.626-2.313l8.325,2.125-2.093-8c.037-.056.071-.114.107-.171" transform="translate(-290.515 -725.689)" fill="#650000"/>
            </g>
          </g>
        </g>
        <path id="Path_9969" data-name="Path 9969" d="M458.187,639.574h0a4.543,4.543,0,0,0-6.288,1.271l-.231.313-.313-.231a4.426,4.426,0,1,0-5.425,6.98l.313.231,6.332,4.669a1.2,1.2,0,0,0,1.67-.253l4.669-6.332.231-.313a4.531,4.531,0,0,0-.958-6.336" transform="translate(-416.135 -598.584)" fill="#ff001f"/>
      </g>
    </g>
  </g>
</svg>
