<svg xmlns="http://www.w3.org/2000/svg" width="35.137" height="35.219" viewBox="0 0 35.137 35.219">
  <g id="coin" transform="translate(-1.25 -2.17)">
    <g id="Group_57727" data-name="Group 57727">
      <g id="Group_57726" data-name="Group 57726">
        <path id="Path_10043" data-name="Path 10043" d="M9.058,5.181a17.568,17.568,0,0,1,9.76-2.961,1.226,1.226,0,0,1,0,2.451A15.117,15.117,0,1,0,33.935,19.788a1.226,1.226,0,0,1,2.451,0A17.568,17.568,0,1,1,9.058,5.181Z" transform="translate(0 0.032)" fill="#00c417" fill-rule="evenodd"/>
        <g id="Group_57725" data-name="Group 57725" transform="translate(24.685 2.17)">
          <path id="Path_10045" data-name="Path 10045" d="M26.932,2.529a1.226,1.226,0,0,1,0,1.733l-9.25,9.25a1.226,1.226,0,0,1-1.733-1.733l9.25-9.25a1.226,1.226,0,0,1,1.733,0Z" transform="translate(-15.59 -2.17)" fill="#00c417" fill-rule="evenodd"/>
          <path id="Path_10046" data-name="Path 10046" d="M16.815,3.3a1.226,1.226,0,0,1,1.226,1.226V10.7h6.178a1.226,1.226,0,1,1,0,2.451h-7.4a1.226,1.226,0,0,1-1.226-1.226v-7.4A1.226,1.226,0,0,1,16.815,3.3Z" transform="translate(-15.59 -1.453)" fill="#00c417" fill-rule="evenodd"/>
        </g>
        <path id="Path_10039" data-name="Path 10039" d="M81.574,3.146a.307.307,0,0,0-.227-.089H79.661a3.414,3.414,0,0,0-.631-1.42h2.3a.3.3,0,0,0,.315-.315V.316A.3.3,0,0,0,81.327,0H73.122a.3.3,0,0,0-.316.316V1.627a.32.32,0,0,0,.316.316h1.43q2.081,0,2.643,1.114H73.122a.3.3,0,0,0-.316.316V4.379a.3.3,0,0,0,.316.315h4.212a1.927,1.927,0,0,1-1.011,1.233,4.451,4.451,0,0,1-2.1.424h-1.1a.32.32,0,0,0-.316.316V7.92a.3.3,0,0,0,.089.217q1.894,2.012,4.912,5.632a.291.291,0,0,0,.247.118h1.923a.286.286,0,0,0,.286-.178.269.269,0,0,0-.039-.335Q77.343,9.843,75.7,8.087A5,5,0,0,0,78.418,7,3.687,3.687,0,0,0,79.69,4.695h1.657a.3.3,0,0,0,.316-.315V3.373A.307.307,0,0,0,81.574,3.146Z" transform="translate(-58.978 13.871)" fill="#00c417"/>
      </g>
    </g>
  </g>
</svg>
