<svg xmlns="http://www.w3.org/2000/svg" width="6.704" height="8.715" viewBox="0 0 6.704 8.715">
  <path id="Icon_ionic-ios-lock" data-name="Icon ionic-ios-lock" d="M12.616,6.391h-.5V5.413a2.011,2.011,0,1,0-4.022-.027V6.391h-.5a.84.84,0,0,0-.838.838v4.022a.84.84,0,0,0,.838.838h5.028a.84.84,0,0,0,.838-.838V7.229A.84.84,0,0,0,12.616,6.391ZM10.4,9.006v1.441a.3.3,0,0,1-.279.3.294.294,0,0,1-.308-.293V9.006a.67.67,0,1,1,.587,0Zm1.131-2.614H8.677V5.386a1.425,1.425,0,0,1,2.849,0Z" transform="translate(-6.75 -3.374)" fill="#ca3c74"/>
</svg>
