<svg xmlns="http://www.w3.org/2000/svg" xmlns:xlink="http://www.w3.org/1999/xlink" width="172.063" height="52.022" viewBox="0 0 172.063 52.022">
  <defs>
    <clipPath id="clip-path">
      <rect id="Rectangle_48" data-name="Rectangle 48" width="41.433" height="52.022" fill="none"/>
    </clipPath>
    <clipPath id="clip-path-2">
      <path id="Path_1181" data-name="Path 1181" d="M265.408,437.112Zm-23.551,8.944a7.02,7.02,0,0,0,9.006,6.733,20.984,20.984,0,0,0,14.546-15.677H245.527a3.67,3.67,0,0,1-3.67-3.67Z" transform="translate(-241.857 -433.442)" fill="none"/>
    </clipPath>
    <linearGradient id="linear-gradient" x1="0.5" x2="0.5" y2="1" gradientUnits="objectBoundingBox">
      <stop offset="0" stop-color="#f54a91"/>
      <stop offset="1" stop-color="#b72963"/>
    </linearGradient>
    <clipPath id="clip-path-3">
      <path id="Path_1182" data-name="Path 1182" d="M0,207.867a20.955,20.955,0,0,0,17.88,20.727V208.617a3.67,3.67,0,0,1,3.492-3.666c-.117-4.456-8.2-7.512-7.986-3.149-8.719-4.6.619-3.946-4.4-11.134A20.926,20.926,0,0,0,0,207.867" transform="translate(0 -190.668)" fill="none"/>
    </clipPath>
    <clipPath id="clip-path-4">
      <path id="Path_1183" data-name="Path 1183" d="M93.941,0,83.612,13.054C77.88,19.707,77.955,31.6,87.136,36.441a8.052,8.052,0,0,1,8.052-8.052c1.957,0,3.942.9,5.76,1.542,4.265,1.5,6.72-.265,9.029-3.348l-7.531-5.907-.235-2.444c-.43-4.474-3.764-6.055-7.453-7.886h0S97.384,6.629,93.941,0Z" transform="translate(-79.7)" fill="none"/>
    </clipPath>
    <linearGradient id="linear-gradient-2" x1="0.5" x2="0.5" y2="1" gradientUnits="objectBoundingBox">
      <stop offset="0" stop-color="#d03475"/>
      <stop offset="1" stop-color="#cc1261"/>
    </linearGradient>
    <clipPath id="clip-path-5">
      <path id="Path_1184" data-name="Path 1184" d="M149.5,334.634h0a8.052,8.052,0,0,1,8.052-8.052c1.957,0,3.942.9,5.76,1.542,3.333,1.173,5.561.35,7.477-1.535-1.069.909-2.453,1.385-5.842-.379l-5.623-2.926a10.628,10.628,0,0,0-4.9-1.283c-6.294,0-10.174,6.693-4.922,12.635" transform="translate(-147.04 -322)" fill="none"/>
    </clipPath>
    <clipPath id="clip-path-6">
      <path id="Path_1185" data-name="Path 1185" d="M284.1,59.442h0a5.706,5.706,0,0,1-.736,1.867,20.53,20.53,0,0,1,5.3,3.275c.862-1.291,2.221-4.343.8-9.552Z" transform="translate(-283.365 -55.031)" fill="none"/>
    </clipPath>
  </defs>
  <g id="Group_56961" data-name="Group 56961" transform="translate(-1200.5 -194.804)">
    <g id="Group_135" data-name="Group 135" transform="translate(654.5 -223.196)">
      <g id="Group_97" data-name="Group 97" transform="translate(546 418)">
        <g id="Group_57332" data-name="Group 57332">
          <g id="Group_76" data-name="Group 76" transform="translate(46.162 3.682)">
            <g id="Group_15" data-name="Group 15">
              <path id="Salefox" d="M12.749.668A13.629,13.629,0,0,0,18.306-.377a8.325,8.325,0,0,0,3.645-2.958,7.943,7.943,0,0,0,1.286-4.54v-.019a7.066,7.066,0,0,0-.834-3.521,6.657,6.657,0,0,0-2.617-2.49,16.575,16.575,0,0,0-4.673-1.624l-2.995-.654a8.612,8.612,0,0,1-3.83-1.588,3.245,3.245,0,0,1-1.166-2.547v-.019a3.409,3.409,0,0,1,.731-2.206,4.647,4.647,0,0,1,1.989-1.4,7.837,7.837,0,0,1,2.86-.49,7.5,7.5,0,0,1,2.91.491,5.125,5.125,0,0,1,1.995,1.376,3.961,3.961,0,0,1,.929,2l.038.24h4.158l-.019-.256A7.218,7.218,0,0,0,21.3-24.433a8.672,8.672,0,0,0-3.443-2.712,12.1,12.1,0,0,0-5.093-1A12.421,12.421,0,0,0,7.6-27.133,8.428,8.428,0,0,0,4.083-24.31,7.183,7.183,0,0,0,2.8-20.119v.019a6.836,6.836,0,0,0,1.9,4.987,11.869,11.869,0,0,0,6.087,2.845l2.995.639A8.943,8.943,0,0,1,17.712-10a3.33,3.33,0,0,1,1.2,2.623v.019a3.5,3.5,0,0,1-.772,2.238A5.063,5.063,0,0,1,16.018-3.6a8.18,8.18,0,0,1-3.1.547,9.759,9.759,0,0,1-3.277-.51A5.623,5.623,0,0,1,7.355-4.986a3.638,3.638,0,0,1-.978-2.163l-.019-.2H2.152l.019.241A7.617,7.617,0,0,0,3.7-3.051,8.788,8.788,0,0,0,7.335-.316,13.706,13.706,0,0,0,12.749.668ZM32.678.351a8.1,8.1,0,0,0,2.547-.383A6.482,6.482,0,0,0,37.3-1.154a6.388,6.388,0,0,0,1.513-1.779h.319V0h4.109V-14.148a7.036,7.036,0,0,0-.945-3.725,6.075,6.075,0,0,0-2.76-2.381,10.648,10.648,0,0,0-4.431-.827,11.4,11.4,0,0,0-4.164.707A7.378,7.378,0,0,0,28.015-18.4a5.64,5.64,0,0,0-1.362,2.969l-.019.139h3.984l.023-.064a3.019,3.019,0,0,1,1.469-1.7,5.8,5.8,0,0,1,2.815-.6,4.741,4.741,0,0,1,3.147.9,3.244,3.244,0,0,1,1.06,2.612v6.5a4.28,4.28,0,0,1-.691,2.392,4.851,4.851,0,0,1-1.9,1.675,5.945,5.945,0,0,1-2.749.617,4.508,4.508,0,0,1-2.749-.8,2.609,2.609,0,0,1-1.085-2.225v-.038a2.572,2.572,0,0,1,1-2.161,5.707,5.707,0,0,1,3.141-.9l7.078-.454v-2.919l-7.635.461a12.237,12.237,0,0,0-4.192.893A5.955,5.955,0,0,0,26.73-9.025a5.5,5.5,0,0,0-.9,3.171v.038a5.906,5.906,0,0,0,.894,3.269A5.925,5.925,0,0,0,29.168-.4,7.915,7.915,0,0,0,32.678.351ZM47.788,0h4.137V-28.791H47.788ZM65.15.393a11.207,11.207,0,0,0,3.528-.51A8.781,8.781,0,0,0,71.309-1.47a7.717,7.717,0,0,0,1.758-1.858,6.672,6.672,0,0,0,.923-2.038l.042-.17-4,0-.069.15A3.407,3.407,0,0,1,69.112-4.3a5.038,5.038,0,0,1-1.58.926A6.371,6.371,0,0,1,65.24-3a5.677,5.677,0,0,1-3-.769,5.037,5.037,0,0,1-1.953-2.213,8.064,8.064,0,0,1-.685-3.48v-1.653a8.307,8.307,0,0,1,.7-3.6,5.146,5.146,0,0,1,1.907-2.221,5.08,5.08,0,0,1,2.748-.753,5.122,5.122,0,0,1,2.727.722,4.827,4.827,0,0,1,1.851,2.174,8.788,8.788,0,0,1,.67,3.675v1.646L72.2-12.21H57.537v2.954H74.252v-1.452a12.411,12.411,0,0,0-1.123-5.441,8.526,8.526,0,0,0-3.212-3.633,9.241,9.241,0,0,0-4.983-1.3,9.212,9.212,0,0,0-5.022,1.35,8.946,8.946,0,0,0-3.31,3.771,12.871,12.871,0,0,0-1.17,5.66v.019A12.779,12.779,0,0,0,56.6-4.615a8.62,8.62,0,0,0,3.345,3.7A9.918,9.918,0,0,0,65.15.393ZM78.871,0h4.137V-17.416h4.54v-3.273H82.967v-1.963a3.447,3.447,0,0,1,.735-2.389,3.172,3.172,0,0,1,2.446-.81q.477,0,.887.022a5.484,5.484,0,0,1,.7.076v-3.035q-.545-.1-1.146-.146t-1.3-.051a8.428,8.428,0,0,0-3.584.671,4.448,4.448,0,0,0-2.13,2.031,7.457,7.457,0,0,0-.7,3.431v2.163h-3.4v3.273h3.4ZM97.387.393A10.092,10.092,0,0,0,102.619-.9a8.589,8.589,0,0,0,3.371-3.7,12.851,12.851,0,0,0,1.183-5.729v-.038a12.8,12.8,0,0,0-1.189-5.732,8.6,8.6,0,0,0-3.376-3.693,10.1,10.1,0,0,0-5.221-1.29,10.09,10.09,0,0,0-5.21,1.292A8.6,8.6,0,0,0,88.792-16.1a12.779,12.779,0,0,0-1.19,5.729v.038A12.834,12.834,0,0,0,88.787-4.6a8.585,8.585,0,0,0,3.38,3.7A10.1,10.1,0,0,0,97.387.393Zm0-3.457a5.124,5.124,0,0,1-3.008-.863,5.383,5.383,0,0,1-1.89-2.486,10.48,10.48,0,0,1-.653-3.912v-.038a10.467,10.467,0,0,1,.655-3.919,5.379,5.379,0,0,1,1.892-2.482,5.128,5.128,0,0,1,3-.861,5.127,5.127,0,0,1,3.006.861,5.382,5.382,0,0,1,1.89,2.482,10.469,10.469,0,0,1,.655,3.919v.038a10.471,10.471,0,0,1-.653,3.909A5.4,5.4,0,0,1,100.4-3.928,5.115,5.115,0,0,1,97.387-3.063ZM107.328,0h4.506l4.519-7.45h.319L121.182,0H125.9L118.99-10.471l6.834-10.218h-4.572L116.838-13.3h-.319l-4.449-7.388h-4.808L114.191-10.3Z" transform="translate(0 39)" fill="#fff"/>
            </g>
          </g>
          <g id="Group_96" data-name="Group 96">
            <g id="Group_95" data-name="Group 95" clip-path="url(#clip-path)">
              <g id="Group_78" data-name="Group 78" transform="translate(17.881 32.046)">
                <g id="Group_77" data-name="Group 77" transform="translate(0 0)" clip-path="url(#clip-path-2)">
                  <rect id="Rectangle_30" data-name="Rectangle 30" width="23.552" height="19.994" transform="translate(0 0)" fill="url(#linear-gradient)"/>
                </g>
              </g>
              <g id="Group_82" data-name="Group 82" transform="translate(0 14.097)">
                <g id="Group_81" data-name="Group 81" clip-path="url(#clip-path-3)">
                  <rect id="Rectangle_34" data-name="Rectangle 34" width="43.486" height="38.243" transform="matrix(0.531, -0.847, 0.847, 0.531, -17.061, 27.24)" fill="#b72963"/>
                </g>
              </g>
              <g id="Group_86" data-name="Group 86" transform="translate(5.892 0)">
                <g id="Group_85" data-name="Group 85" transform="translate(0)" clip-path="url(#clip-path-4)">
                  <rect id="Rectangle_39" data-name="Rectangle 39" width="46.983" height="48.157" transform="matrix(0.829, -0.559, 0.559, 0.829, -18.709, 11.386)" fill="url(#linear-gradient-2)"/>
                </g>
              </g>
              <g id="Group_90" data-name="Group 90" transform="translate(10.871 23.807)">
                <g id="Group_89" data-name="Group 89" transform="translate(0 0)" clip-path="url(#clip-path-5)">
                  <rect id="Rectangle_43" data-name="Rectangle 43" width="14.224" height="27.259" transform="translate(-3.561 12.588) rotate(-86.502)" fill="#ff6aa8"/>
                </g>
              </g>
              <g id="Group_92" data-name="Group 92" transform="translate(20.95 4.069)">
                <g id="Group_91" data-name="Group 91" transform="translate(0 0)" clip-path="url(#clip-path-6)">
                  <rect id="Rectangle_44" data-name="Rectangle 44" width="12.154" height="11.754" transform="matrix(0.602, -0.799, 0.799, 0.602, -4.592, 6.091)" fill="#a9225b"/>
                </g>
              </g>
              <path id="Path_1151" data-name="Path 1151" d="M.05.663C-.362.691,1.883-.131,2.229.018s.944,1,.944,1S.463.634.05.663Z" transform="translate(24.918 17.352) rotate(30)" fill="#fff"/>
            </g>
          </g>
        </g>
      </g>
    </g>
  </g>
</svg>
