<svg xmlns="http://www.w3.org/2000/svg" width="7.55" height="8.448" viewBox="0 0 7.55 8.448">
  <path id="logout" d="M30.919,7.1v.421a.9.9,0,0,1-.461.8.9.9,0,0,1-.921,0L27.665,7.241a.9.9,0,0,1-.461-.8V.921A.922.922,0,0,1,28.125,0h4.123a.922.922,0,0,1,.921.921V2.085a.3.3,0,1,1-.6,0V.921A.317.317,0,0,0,32.248.6H28.636l1.822,1.052a.9.9,0,0,1,.461.8V6.5h1.33a.317.317,0,0,0,.316-.316V5.161a.3.3,0,1,1,.6,0v1.02a.922.922,0,0,1-.921.921Zm2.8-3.249-.333.333a.3.3,0,0,0,.428.428l.849-.85a.3.3,0,0,0,0-.428l-.849-.849a.3.3,0,1,0-.428.428l.333.333H31.49a.3.3,0,0,0,0,.605h2.232Z" transform="translate(-27.204 0)" fill="#ca3c74" fill-rule="evenodd"/>
</svg>
