<svg xmlns="http://www.w3.org/2000/svg" width="122" height="122" viewBox="0 0 122 122">
  <g id="Group_56938" data-name="Group 56938" transform="translate(-956 -363)">
    <g id="Group_56865" data-name="Group 56865" transform="translate(51.023 -7.977)">
      <circle id="Ellipse_542" data-name="Ellipse 542" cx="61" cy="61" r="61" transform="translate(904.977 370.977)" fill="#ffe3ee"/>
      <path id="Path_9763" data-name="Path 9763" d="M178.754,98a35.754,35.754,0,1,0,35.754,35.754A35.753,35.753,0,0,0,178.754,98Z" transform="translate(786.977 297.977)" fill="#ca3c74"/>
      <path id="logout" d="M40.192,24.834v1.472a3.151,3.151,0,0,1-1.611,2.79,3.151,3.151,0,0,1-3.221,0l-6.545-3.779a3.151,3.151,0,0,1-1.611-2.79V3.221A3.225,3.225,0,0,1,30.425,0H44.841a3.225,3.225,0,0,1,3.222,3.221V7.291a1.058,1.058,0,1,1-2.115,0V3.221a1.108,1.108,0,0,0-1.106-1.106H32.209l6.372,3.679a3.152,3.152,0,0,1,1.611,2.789V22.718h4.649a1.107,1.107,0,0,0,1.106-1.106V18.045a1.058,1.058,0,1,1,2.115,0v3.567a3.225,3.225,0,0,1-3.222,3.221Zm9.8-11.359-1.165,1.165a1.058,1.058,0,0,0,1.5,1.5l2.97-2.97a1.057,1.057,0,0,0,0-1.5L50.324,8.7a1.057,1.057,0,1,0-1.5,1.5l1.165,1.165h-7.8a1.058,1.058,0,0,0,0,2.115h7.8Z" transform="translate(925.574 417.208)" fill="#fff" fill-rule="evenodd"/>
    </g>
  </g>
</svg>
