<svg xmlns="http://www.w3.org/2000/svg" width="12.243" height="15.038" viewBox="0 0 12.243 15.038">
  <g id="pdf-file" transform="translate(-44.806)">
    <path id="Path_9862" data-name="Path 9862" d="M119.266,297.811c0-.25-.173-.4-.479-.4a1.061,1.061,0,0,0-.254.024v.8a.962.962,0,0,0,.205.016C119.064,298.253,119.266,298.088,119.266,297.811Z" transform="translate(-71.427 -288.136)" fill="#ca3c74"/>
    <path id="Path_9863" data-name="Path 9863" d="M194.082,297.681a1.264,1.264,0,0,0-.278.024v1.775a1.112,1.112,0,0,0,.213.012.841.841,0,0,0,.918-.95A.778.778,0,0,0,194.082,297.681Z" transform="translate(-144.351 -288.396)" fill="#ca3c74"/>
    <path id="Path_9864" data-name="Path 9864" d="M53.248,0h-6.04a1.6,1.6,0,0,0-1.6,1.6V7.519h-.156a.645.645,0,0,0-.645.645v3.911a.645.645,0,0,0,.645.645h.156v.717a1.6,1.6,0,0,0,1.6,1.6h8.241a1.6,1.6,0,0,0,1.6-1.6V3.788ZM46.5,8.87a5.055,5.055,0,0,1,.829-.056,1.3,1.3,0,0,1,.829.217.793.793,0,0,1,.29.628.867.867,0,0,1-.249.644,1.258,1.258,0,0,1-.881.286,1.588,1.588,0,0,1-.209-.012v.97H46.5Zm8.951,5.188H47.208a.621.621,0,0,1-.62-.62V12.72H54.27a.645.645,0,0,0,.645-.645V8.164a.645.645,0,0,0-.645-.645H46.588V1.6a.621.621,0,0,1,.62-.619L52.881.975v2.1a1.11,1.11,0,0,0,1.11,1.11l2.054-.006.023,9.261A.62.62,0,0,1,55.449,14.058Zm-6.611-2.524V8.87a5.524,5.524,0,0,1,.829-.056,1.747,1.747,0,0,1,1.111.29,1.2,1.2,0,0,1,.459,1.022,1.375,1.375,0,0,1-.451,1.1,1.947,1.947,0,0,1-1.251.35A5.31,5.31,0,0,1,48.838,11.534ZM53.23,9.957v.5h-.974v1.091H51.64V8.834H53.3v.5H52.256v.62Z" fill="#ca3c74"/>
  </g>
</svg>
