<svg xmlns="http://www.w3.org/2000/svg" width="8.048" height="10.06" viewBox="0 0 8.048 10.06">
  <g id="pdf-file" transform="translate(-4 -2)">
    <path id="Path_10041" data-name="Path 10041" d="M8.082,14.68A.753.753,0,0,0,7.9,14.7v.593a.685.685,0,0,0,.152.012c.241,0,.389-.122.389-.327C8.436,14.791,8.308,14.68,8.082,14.68Zm1.754.006a.928.928,0,0,0-.2.018v1.313a.821.821,0,0,0,.157.009.622.622,0,0,0,.679-.7A.576.576,0,0,0,9.836,14.686Z" transform="translate(-1.936 -6.302)" fill="#ca3c74"/>
    <path id="Path_10042" data-name="Path 10042" d="M9.03,2H5.006A1.006,1.006,0,0,0,4,3.006v8.048A1.006,1.006,0,0,0,5.006,12.06h6.036a1.006,1.006,0,0,0,1.006-1.006V5.018ZM6.765,9.137a.932.932,0,0,1-.652.211,1.123,1.123,0,0,1-.155-.009v.717h-.45V8.077a3.8,3.8,0,0,1,.613-.041.964.964,0,0,1,.614.16.588.588,0,0,1,.214.464.645.645,0,0,1-.185.477Zm1.915.682a1.44,1.44,0,0,1-.925.259,3.875,3.875,0,0,1-.515-.03V8.077a4,4,0,0,1,.613-.042,1.29,1.29,0,0,1,.821.214.887.887,0,0,1,.34.756A1.018,1.018,0,0,1,8.68,9.819Zm1.859-1.4H9.768v.458h.72V9.25h-.72v.807H9.312V8.051h1.226ZM9.03,5.521h-.5V3.006l2.515,2.515Z" fill="#ca3c74"/>
  </g>
</svg>
