<svg xmlns="http://www.w3.org/2000/svg" width="8.418" height="10.34" viewBox="0 0 8.418 10.34">
  <g id="pdf-file" transform="translate(-44.806)">
    <path id="Path_10059" data-name="Path 10059" d="M119.037,297.686c0-.172-.119-.274-.329-.274a.73.73,0,0,0-.174.017v.551a.66.66,0,0,0,.141.011C118.9,297.99,119.037,297.877,119.037,297.686Z" transform="translate(-72.146 -291.034)" fill="#ca3c74"/>
    <path id="Path_10060" data-name="Path 10060" d="M193.995,297.681a.873.873,0,0,0-.191.017v1.22a.763.763,0,0,0,.147.008.578.578,0,0,0,.631-.653A.535.535,0,0,0,193.995,297.681Z" transform="translate(-145.803 -291.297)" fill="#ca3c74"/>
    <path id="Path_10061" data-name="Path 10061" d="M50.61,0H46.457a1.1,1.1,0,0,0-1.1,1.1V5.17h-.107a.443.443,0,0,0-.443.443V8.3a.443.443,0,0,0,.443.443h.107V9.24a1.1,1.1,0,0,0,1.1,1.1h5.667a1.1,1.1,0,0,0,1.1-1.1V2.6ZM45.969,6.1a3.476,3.476,0,0,1,.57-.039.894.894,0,0,1,.57.149.545.545,0,0,1,.2.432.6.6,0,0,1-.172.443.865.865,0,0,1-.606.2,1.092,1.092,0,0,1-.144-.008v.667h-.418Zm6.155,3.567H46.457a.427.427,0,0,1-.426-.427V8.746h5.282a.443.443,0,0,0,.443-.443V5.614a.443.443,0,0,0-.443-.443H46.031V1.1a.427.427,0,0,1,.426-.426l3.9,0V2.112a.763.763,0,0,0,.763.763l1.412,0L52.55,9.24A.427.427,0,0,1,52.124,9.666ZM47.578,7.931V6.1a3.8,3.8,0,0,1,.57-.039,1.2,1.2,0,0,1,.764.2.825.825,0,0,1,.315.7.945.945,0,0,1-.31.755,1.339,1.339,0,0,1-.861.241A3.651,3.651,0,0,1,47.578,7.931ZM50.6,6.846v.343h-.67v.75h-.423V6.074h1.14V6.42h-.717v.426Z" fill="#ca3c74"/>
  </g>
</svg>
