<svg xmlns="http://www.w3.org/2000/svg" width="19" height="19" viewBox="0 0 19 19">
  <g id="Group_56696" data-name="Group 56696" transform="translate(-839 -383)">
    <circle id="Ellipse_483" data-name="Ellipse 483" cx="9.5" cy="9.5" r="9.5" transform="translate(839 383)" fill="#ffba39"/>
    <g id="Group_56695" data-name="Group 56695" transform="translate(0 0.217)">
      <path id="Path_220" data-name="Path 220" d="M16.859,58.358q-2.053,0-4.106,0c-.093,0-.124-.024-.137-.116-.134-.893-.272-1.785-.41-2.677-.05-.327-.1-.654-.151-.981a.328.328,0,0,1,.141-.358.323.323,0,0,1,.383.034q.872.652,1.742,1.306a.448.448,0,0,0,.723-.121l1.447-2.171a.412.412,0,0,1,.745,0l1.441,2.162a.452.452,0,0,0,.737.124q.871-.653,1.742-1.307a.321.321,0,0,1,.375-.028.325.325,0,0,1,.144.348c-.013.082-.025.165-.038.248q-.259,1.685-.518,3.37c-.025.165-.024.165-.195.165H16.859" transform="translate(831.635 335.744)" fill="#fff"/>
      <path id="Path_221" data-name="Path 221" d="M33.918,278.243H42.36c.007.008.014.013.014.018,0,.324.012.649,0,.973a.43.43,0,0,1-.475.414H34.421a.45.45,0,0,1-.5-.5c0-.3,0-.594,0-.9" transform="translate(810.351 116.569)" fill="#fff"/>
    </g>
  </g>
</svg>
