<svg xmlns="http://www.w3.org/2000/svg" width="13.344" height="14.977" viewBox="0 0 13.344 14.977">
  <path id="clerk-with-tie" d="M22.207,5.577c-.233.891-.777,1.088-1.068,1.127a5.879,5.879,0,0,1-.965,1.455,1.922,1.922,0,0,1-.607.368,2.677,2.677,0,0,1-1.969,0,1.92,1.92,0,0,1-.607-.368A5.876,5.876,0,0,1,16.027,6.7c-.29-.039-.834-.236-1.067-1.127a1.418,1.418,0,0,1,.095-1.155.9.9,0,0,1,.277-.274c0-.1,0-.214.015-.35a1.638,1.638,0,0,1-.114-1.558,1.388,1.388,0,0,1,1.306-1.01,2.265,2.265,0,0,1,.7-.767A2.7,2.7,0,0,1,18.789,0a3.5,3.5,0,0,1,2.07.724c1.042.768.953,2.471.927,2.781a4.617,4.617,0,0,1,.049.643.9.9,0,0,1,.277.274A1.419,1.419,0,0,1,22.207,5.577Zm3.048,6.639v2.418a.343.343,0,0,1-.343.343H12.254a.343.343,0,0,1-.343-.343V12.216A2.4,2.4,0,0,1,13.425,9.98l3-1.2a.343.343,0,0,1,.449.2l.753,2.082.149-.429-.237-.58a.343.343,0,0,1,.317-.472h1.463a.343.343,0,0,1,.317.472l-.237.58.149.429L20.3,8.983a.343.343,0,0,1,.449-.2l3,1.2A2.4,2.4,0,0,1,25.255,12.216Zm-1.824.263a.343.343,0,0,0-.343-.343h-2.3a.343.343,0,0,0-.343.343v1.068a.343.343,0,0,0,.343.343h2.3a.343.343,0,0,0,.343-.343Z" transform="translate(-11.911)" fill="#ca3c74"/>
</svg>
