<svg xmlns="http://www.w3.org/2000/svg" width="35.328" height="33.669" viewBox="0 0 35.328 33.669">
  <g id="star" transform="translate(0 -12.025)">
    <g id="Group_58570" data-name="Group 58570" transform="translate(4.405 13.859)">
      <g id="Group_58569" data-name="Group 58569" transform="translate(0 0)">
        <path id="Path_10674" data-name="Path 10674" d="M87.995,46.27l-5.833-.848-2.608-5.285a2.748,2.748,0,0,0-4.928,0l-2.608,5.285-5.833.848a2.748,2.748,0,0,0-1.523,4.687l4.22,4.114-1,5.809a2.748,2.748,0,0,0,3.987,2.9l5.217-2.743,5.217,2.743a2.749,2.749,0,0,0,3.987-2.9l-1-5.809,4.221-4.114A2.748,2.748,0,0,0,87.995,46.27Z" transform="translate(-63.83 -38.606)" fill="#ca3c74"/>
      </g>
    </g>
    <g id="Group_58572" data-name="Group 58572" transform="translate(5.758 12.025)">
      <g id="Group_58571" data-name="Group 58571" transform="translate(0 0)">
        <path id="Path_10675" data-name="Path 10675" d="M86.985,14.449,85.577,12.51a1.178,1.178,0,0,0-1.905,1.384l1.408,1.938a1.178,1.178,0,0,0,1.905-1.384Z" transform="translate(-83.446 -12.025)" fill="#ca3c74"/>
      </g>
    </g>
    <g id="Group_58574" data-name="Group 58574" transform="translate(0 31.006)">
      <g id="Group_58573" data-name="Group 58573" transform="translate(0 0)">
        <path id="Path_10676" data-name="Path 10676" d="M4.623,287.924a1.177,1.177,0,0,0-1.484-.756l-2.325.755a1.178,1.178,0,0,0,.728,2.24l2.325-.755A1.177,1.177,0,0,0,4.623,287.924Z" transform="translate(0 -287.11)" fill="#ca3c74"/>
      </g>
    </g>
    <g id="Group_58576" data-name="Group 58576" transform="translate(25.807 12.025)">
      <g id="Group_58575" data-name="Group 58575" transform="translate(0 0)">
        <path id="Path_10677" data-name="Path 10677" d="M377.287,12.25a1.178,1.178,0,0,0-1.645.26l-1.408,1.938a1.178,1.178,0,0,0,1.905,1.384l1.408-1.938A1.178,1.178,0,0,0,377.287,12.25Z" transform="translate(-374.009 -12.025)" fill="#ca3c74"/>
      </g>
    </g>
    <g id="Group_58578" data-name="Group 58578" transform="translate(30.648 31.006)">
      <g id="Group_58577" data-name="Group 58577" transform="translate(0 0)">
        <path id="Path_10678" data-name="Path 10678" d="M448.03,287.923l-2.325-.755a1.178,1.178,0,0,0-.728,2.24l2.325.755a1.178,1.178,0,1,0,.728-2.24Z" transform="translate(-444.163 -287.109)" fill="#ca3c74"/>
      </g>
    </g>
    <g id="Group_58580" data-name="Group 58580" transform="translate(16.487 40.948)">
      <g id="Group_58579" data-name="Group 58579">
        <path id="Path_10679" data-name="Path 10679" d="M240.112,431.206a1.178,1.178,0,0,0-1.178,1.178v2.39a1.178,1.178,0,1,0,2.355,0v-2.39A1.178,1.178,0,0,0,240.112,431.206Z" transform="translate(-238.934 -431.206)" fill="#ca3c74"/>
      </g>
    </g>
  </g>
</svg>
