<svg xmlns="http://www.w3.org/2000/svg" width="25.398" height="25.398" viewBox="0 0 25.398 25.398">
  <g id="store" transform="translate(-2 -2)">
    <path id="XMLID_266_" d="M25.445,8,27.4,12.535a2.974,2.974,0,0,1-3.175,2.721,3.01,3.01,0,0,1-3.168-2.551c0-.016-.011-.016-.013,0a3.01,3.01,0,0,1-3.168,2.551,3.01,3.01,0,0,1-3.168-2.551c0-.016-.011-.016-.013,0a3.01,3.01,0,0,1-3.168,2.551,3.01,3.01,0,0,1-3.168-2.551c0-.016-.011-.016-.013,0a3.01,3.01,0,0,1-3.168,2.551A2.974,2.974,0,0,1,2,12.535L3.954,8Z" transform="translate(0 -0.557)" fill="#ca3c74"/>
    <path id="XMLID_269_" d="M25.77,5.628H4V2.907A.907.907,0,0,1,4.907,2H24.863a.907.907,0,0,1,.907.907Z" transform="translate(-0.186)" fill="#ca3c74"/>
    <path id="XMLID_270_" d="M25.77,17.8V28.866H4V17.8a5.4,5.4,0,0,0,1.361.176,5.378,5.378,0,0,0,1.361-.19v6.993a.454.454,0,0,0,.454.454H22.6a.454.454,0,0,0,.454-.454V17.791a5.156,5.156,0,0,0,2.721.014Z" transform="translate(-0.186 -1.467)" fill="#ca3c74"/>
  </g>
</svg>
