<svg xmlns="http://www.w3.org/2000/svg" width="15.104" height="15.104" viewBox="0 0 15.104 15.104">
  <g id="store" transform="translate(-2 -2)">
    <path id="XMLID_266_" d="M15.942,8,17.1,10.7a1.769,1.769,0,0,1-1.888,1.618A1.79,1.79,0,0,1,13.332,10.8c0-.01-.006-.01-.008,0a1.79,1.79,0,0,1-1.884,1.517A1.79,1.79,0,0,1,9.556,10.8c0-.01-.006-.01-.008,0a1.79,1.79,0,0,1-1.884,1.517A1.79,1.79,0,0,1,5.78,10.8c0-.01-.006-.01-.008,0a1.79,1.79,0,0,1-1.884,1.517A1.769,1.769,0,0,1,2,10.7L3.162,8Z" transform="translate(0 -2.763)" fill="#ca3c74"/>
    <path id="XMLID_269_" d="M16.946,4.158H4V2.539A.54.54,0,0,1,4.539,2H16.407a.54.54,0,0,1,.539.539Z" transform="translate(-0.921)" fill="#ca3c74"/>
    <path id="XMLID_270_" d="M16.946,17.8v6.578H4V17.8a3.066,3.066,0,0,0,1.618-.008v4.158a.27.27,0,0,0,.27.27h9.17a.27.27,0,0,0,.27-.27V17.791a3.066,3.066,0,0,0,1.618.008Z" transform="translate(-0.921 -7.273)" fill="#ca3c74"/>
  </g>
</svg>
