<svg xmlns="http://www.w3.org/2000/svg" width="12.588" height="12.588" viewBox="0 0 12.588 12.588">
  <path id="Icon_metro-sun4" data-name="Icon metro-sun4" d="M11.757,7.725a3.389,3.389,0,1,0,3.389,3.389,3.393,3.393,0,0,0-3.389-3.389Zm0-.968a.484.484,0,0,0,.484-.484V5.3a.484.484,0,1,0-.968,0v.968A.483.483,0,0,0,11.757,6.757Zm0,8.714a.484.484,0,0,0-.484.484v.968a.484.484,0,1,0,.968,0v-.968A.484.484,0,0,0,11.757,15.471Zm3.765-7.439.685-.685a.484.484,0,1,0-.685-.685l-.685.685a.484.484,0,0,0,.685.685ZM7.991,14.2l-.685.685a.484.484,0,0,0,.685.685l.685-.685a.484.484,0,0,0-.685-.685ZM7.4,11.114a.484.484,0,0,0-.484-.484H5.947a.484.484,0,1,0,0,.968h.968A.484.484,0,0,0,7.4,11.114Zm10.167-.484H16.6a.484.484,0,0,0,0,.968h.968a.484.484,0,0,0,0-.968ZM7.99,8.033a.484.484,0,1,0,.685-.685L7.99,6.663a.484.484,0,0,0-.685.685Zm7.532,6.162a.484.484,0,1,0-.685.685l.685.685a.484.484,0,0,0,.685-.685Z" transform="translate(-5.463 -4.82)" fill="#fff"/>
</svg>
