<svg xmlns="http://www.w3.org/2000/svg" width="42.741" height="11.988" viewBox="0 0 42.741 11.988">
  <g id="credit-card" transform="translate(2.424 -80.378)">
    <g id="Group_57686" data-name="Group 57686" transform="translate(-2.203 80.378)">
      <g id="Group_57690" data-name="Group 57690" transform="translate(-0.222 0)">
        <g id="Group_57689" data-name="Group 57689" transform="translate(0)">
          <g id="Group_57691" data-name="Group 57691">
            <g id="Group_57687" data-name="Group 57687">
              <g id="Group_57692" data-name="Group 57692">
                <path id="Path_10020" data-name="Path 10020" d="M36.029,0h6.712V11.988H0V0H33.826c-.019.052-.042.1-.056.155Q32.477,4.829,31.185,9.5c-.154.556-.308,1.112-.464,1.676h2.221c.018-.062.036-.119.052-.177q1.2-4.32,2.392-8.64c.218-.787.429-1.575.644-2.363M19.206,6.753h.228c3.222,0,6.444-.009,9.667.007A1.62,1.62,0,0,0,30.65,5.624c.406-1.484.823-2.965,1.224-4.451A1.279,1.279,0,0,0,31.9.615c-.074-.381-.39-.579-.86-.58H18.984c-.048,0-.1.005-.149.008l-.6,2.187h11.12c-.015.068-.024.121-.038.173-.182.659-.371,1.315-.543,1.976-.04.154-.105.192-.259.192q-5.367-.01-10.735-.01c-.119,0-.2.006-.239.153q-.868,3.175-1.749,6.346c-.014.05-.022.1-.035.164.07,0,.12.008.169.008.629,0,1.258,0,1.887,0,.125,0,.169-.042.2-.159.282-1.04.572-2.078.86-3.117.111-.4.223-.8.337-1.208M3.985.039c-.014.04-.029.076-.039.113Q2.565,5.13,1.188,10.109a1.225,1.225,0,0,0-.034.509c.067.407.382.62.879.62q5.684,0,11.368,0a1.021,1.021,0,0,0,1.058-.815l2.529-9.1C17.1.9,17.22.475,17.341.033H17.16c-.623,0-1.247.005-1.87,0A.191.191,0,0,0,15.066.2Q14.047,3.9,13.02,7.588q-.2.728-.406,1.456H3.707l2.5-9ZM36.794,11.174l.025.017c.044-.04.089-.079.132-.119Q39.77,8.4,42.59,5.738a.177.177,0,0,0,.037-.253Q41.3,2.843,39.969.2c-.024-.047-.051-.093-.09-.164l-.7,2.521L37.906.024l-3.09,11.142.032.02,2.591-2.45.023.018-.669,2.419" fill="#fff"/>
                <path id="Path_10021" data-name="Path 10021" d="M925.32,0c-.214.788-.426,1.576-.644,2.363q-1.195,4.321-2.392,8.64c-.016.058-.034.115-.052.177h-2.221c.156-.564.311-1.12.464-1.676q1.292-4.674,2.585-9.348c.015-.053.037-.1.056-.155Z" transform="translate(-889.291)" fill="#ca3c74"/>
                <path id="Path_10022" data-name="Path 10022" d="M475.214,7.756c-.114.407-.226.807-.337,1.208-.288,1.039-.578,2.077-.86,3.117-.032.118-.076.16-.2.159-.629-.006-1.258,0-1.886,0-.049,0-.1,0-.169-.008.013-.063.021-.114.035-.164q.876-3.173,1.749-6.346c.04-.147.12-.153.239-.153q5.367.005,10.735.01c.154,0,.219-.038.259-.192.173-.661.361-1.318.543-1.976.014-.052.023-.105.038-.173h-11.12l.6-2.187c.053,0,.1-.008.149-.008h12.054c.47,0,.786.2.86.58a1.278,1.278,0,0,1-.024.558c-.4,1.486-.818,2.967-1.224,4.451a1.62,1.62,0,0,1-1.549,1.136c-3.222-.015-6.444-.007-9.667-.007h-.228" transform="translate(-456.008 -1.003)" fill="#ca3c74"/>
                <path id="Path_10023" data-name="Path 10023" d="M37.017.892h2.22l-2.5,9h8.907q.2-.728.406-1.456Q47.077,4.747,48.1,1.053a.191.191,0,0,1,.225-.171c.623.009,1.246,0,1.87,0h.181c-.121.441-.237.864-.354,1.286l-2.529,9.1a1.021,1.021,0,0,1-1.058.815q-5.684,0-11.368,0c-.5,0-.812-.213-.879-.62a1.224,1.224,0,0,1,.034-.509Q35.593,5.981,36.978,1c.01-.037.025-.073.039-.113" transform="translate(-33.032 -0.853)" fill="#ca3c74"/>
                <path id="Path_10024" data-name="Path 10024" d="M1044.639,11.875l.668-2.419-.023-.018-2.591,2.45-.032-.02,3.09-11.142,1.273,2.531.7-2.521c.039.071.067.116.09.164q1.329,2.643,2.659,5.286a.177.177,0,0,1-.037.253q-2.823,2.663-5.64,5.333c-.043.041-.088.08-.132.119l-.025-.017" transform="translate(-1007.845 -0.701)" fill="#ca3c74"/>
              </g>
            </g>
          </g>
        </g>
      </g>
    </g>
  </g>
</svg>
