<svg id="vendor" xmlns="http://www.w3.org/2000/svg" width="27" height="27" viewBox="0 0 27 27">
  <path id="Path_227" data-name="Path 227" d="M0,343.8a.791.791,0,0,0,.791.791H26.209A.791.791,0,0,0,27,343.8v-8.529H0Zm18.679-4.3a.791.791,0,0,1,.828-.543.792.792,0,0,1,1.544,0,.791.791,0,0,1,.477,1.468.792.792,0,0,1-1.249.908.792.792,0,0,1-1.249-.908.791.791,0,0,1-.351-.926Zm-6.778,0a.791.791,0,0,1,.828-.543.792.792,0,0,1,1.544,0,.791.791,0,0,1,.477,1.468.792.792,0,0,1-1.249.908.792.792,0,0,1-1.249-.908A.791.791,0,0,1,11.9,339.492Zm-6.778,0a.791.791,0,0,1,.828-.543.792.792,0,0,1,1.544,0,.791.791,0,0,1,.477,1.468.792.792,0,0,1-1.249.908.792.792,0,0,1-1.249-.908.791.791,0,0,1-.351-.926Z" transform="translate(0 -317.587)" fill="#fff"/>
  <path id="Path_228" data-name="Path 228" d="M482,168.326h1.582V160.7a3.813,3.813,0,0,1-1.582.673Z" transform="translate(-456.582 -152.227)" fill="#fff"/>
  <path id="Path_229" data-name="Path 229" d="M1.582,161.375A3.811,3.811,0,0,1,0,160.7v7.624H1.582Z" transform="translate(0 -152.227)" fill="#fff"/>
  <path id="Path_230" data-name="Path 230" d="M26.209,0H.791A.791.791,0,0,0,0,.791V5.375a2.25,2.25,0,0,0,4.5,0,2.25,2.25,0,0,0,4.5,0,2.25,2.25,0,0,0,4.5,0,2.25,2.25,0,0,0,4.5,0,2.25,2.25,0,0,0,4.5,0,2.25,2.25,0,0,0,4.5,0V.791A.791.791,0,0,0,26.209,0Z" fill="#fff"/>
  <path id="Path_231" data-name="Path 231" d="M193.591,241a.791.791,0,0,0-.791.791v2.6h5.084V241Z" transform="translate(-182.633 -228.291)" fill="#fff"/>
  <path id="Path_232" data-name="Path 232" d="M323.493,208.867h-3.5a.791.791,0,0,0-.791.791v4.293h7v-4.236h-1.919v-.056A.791.791,0,0,0,323.493,208.867Z" transform="translate(-302.367 -197.853)" fill="#fff"/>
</svg>
