<svg xmlns="http://www.w3.org/2000/svg" width="40.019" height="12.925" viewBox="0 0 40.019 12.925">
  <path id="visa" d="M15.195,173.546l-5.238,12.5H6.537l-2.576-9.975a1.382,1.382,0,0,0-.77-1.1A13.6,13.6,0,0,0,0,173.909l.079-.363h5.5a1.507,1.507,0,0,1,1.491,1.275l1.362,7.235,3.364-8.509h3.4Zm13.393,8.417c.015-3.3-4.563-3.477-4.53-4.952.009-.45.436-.927,1.37-1.047a6.1,6.1,0,0,1,3.189.558l.567-2.65a8.691,8.691,0,0,0-3.024-.553c-3.2,0-5.446,1.7-5.465,4.132-.021,1.8,1.605,2.8,2.832,3.4,1.26.613,1.681,1,1.676,1.554-.008.839-1,1.206-1.935,1.222a6.767,6.767,0,0,1-3.323-.79l-.585,2.741a9.864,9.864,0,0,0,3.6.665c3.4,0,5.619-1.682,5.63-4.281m8.44,4.083h2.991l-2.61-12.5H34.647a1.475,1.475,0,0,0-1.377.916l-4.849,11.584h3.394l.674-1.867h4.149Zm-3.608-4.429,1.7-4.694.98,4.694Zm-13.6-8.071-2.675,12.5H13.906l2.676-12.5Z" transform="translate(0 -173.319)" fill="#1a2adf"/>
</svg>
