<svg xmlns="http://www.w3.org/2000/svg" width="11.742" height="11.742" viewBox="0 0 11.742 11.742">
  <g id="writing" transform="translate(-0.5)">
    <path id="Path_10065" data-name="Path 10065" d="M272.72,63.28,271.26,61.82l-2.717,2.74L270,66.02Zm0,0" transform="translate(-261.896 -60.403)" fill="#ca3c74"/>
    <path id="Path_10066" data-name="Path 10066" d="M210.359,207.83a.344.344,0,0,0,.45.45l1.747-.9-1.294-1.294Zm0,0" transform="translate(-205.02 -201.356)" fill="#ca3c74"/>
    <path id="Path_10067" data-name="Path 10067" d="M410.544,1.56a.344.344,0,0,0,0-.487L409.571.1a.344.344,0,0,0-.487,0l-.831.831,1.459,1.459Zm0,0" transform="translate(-398.403 0)" fill="#ca3c74"/>
    <path id="Path_10068" data-name="Path 10068" d="M1.532,127.88h.344v1.743a.344.344,0,0,0,.587.243l1.986-1.986H8.458a1.033,1.033,0,0,0,1.032-1.032v-3.415L8.4,124.518a1.022,1.022,0,0,1-.329.221l-1.97,1.021a1.086,1.086,0,0,1-.451.1,1.017,1.017,0,0,1-.3-.049H2.908a.344.344,0,0,1,0-.688H4.65a1.03,1.03,0,0,1,.055-.693l1.062-2.062a.94.94,0,0,1,.2-.281L7.057,121H1.532A1.033,1.033,0,0,0,.5,122.032v4.816A1.033,1.033,0,0,0,1.532,127.88Zm0,0" transform="translate(0 -118.225)" fill="#ca3c74"/>
  </g>
</svg>
